<svg id="Capa_1" data-name="Capa 1" xmlns="http://www.w3.org/2000/svg" viewBox="0 0 32 32"><defs><style>.cls-1{fill:#1a1a1a;}</style></defs><title>C_logos</title><path class="cls-1" d="M24.53,24a1,1,0,0,1,.75.33l2.06,2.24a11.26,11.26,0,0,1-4.22,3.26,14.63,14.63,0,0,1-6,1.13,14.34,14.34,0,0,1-5.65-1.07,12.42,12.42,0,0,1-4.28-3A12.88,12.88,0,0,1,4.45,22.3a17.17,17.17,0,0,1-1-5.8,15.61,15.61,0,0,1,1-5.82,13.15,13.15,0,0,1,7.54-7.53A15.75,15.75,0,0,1,18,2.08a13.9,13.9,0,0,1,5.49,1,12.75,12.75,0,0,1,4,2.66L25.74,8.19a1.42,1.42,0,0,1-.4.41,1.09,1.09,0,0,1-.67.17,1.52,1.52,0,0,1-.92-.35,13.36,13.36,0,0,0-1.19-.76,10.41,10.41,0,0,0-1.82-.76,9.56,9.56,0,0,0-2.8-.35,9.47,9.47,0,0,0-3.66.69,8.11,8.11,0,0,0-2.87,2,9.17,9.17,0,0,0-1.87,3.14,12,12,0,0,0-.67,4.14,12.37,12.37,0,0,0,.67,4.24,9.54,9.54,0,0,0,1.82,3.12,7.84,7.84,0,0,0,2.72,1.94,8.32,8.32,0,0,0,3.35.67,16.14,16.14,0,0,0,1.94-.11A8.16,8.16,0,0,0,21,26a6.52,6.52,0,0,0,1.39-.65,9.23,9.23,0,0,0,1.3-1,1.61,1.61,0,0,1,.41-.29A1,1,0,0,1,24.53,24Z"/></svg>