<?xml version="1.0" encoding="utf-8"?>
<!-- Generator: Adobe Illustrator 23.0.1, SVG Export Plug-In . SVG Version: 6.00 Build 0)  -->
<svg version="1.1" id="Capa_1" xmlns="http://www.w3.org/2000/svg" xmlns:xlink="http://www.w3.org/1999/xlink" x="0px" y="0px"
	 viewBox="0 0 600 300" style="enable-background:new 0 0 600 300;" xml:space="preserve">
<style type="text/css">
	.st0{fill:#181818;}
</style>
<g>
	<polygon class="st0" points="531,142.1 531,132.7 474.7,132.7 474.7,132.7 474.7,142.1 474.7,162.9 474.7,172.4 485,172.4 
		531,172.4 531,162.9 485,162.9 485,157.3 530.7,157.3 530.7,147.8 485,147.8 485,142.1 	"/>
	<rect x="332.8" y="112.2" class="st0" width="5.1" height="75.6"/>
	<polygon class="st0" points="319.7,142 296.7,142 296.7,172.5 286.9,172.5 286.9,142.2 263.8,142.2 263.8,132.7 319.7,132.7 	"/>
	<path class="st0" d="M120.4,172.5l-10.5,0l-3.7-7.1h-23l-3.4,7.1l-10.9,0l19.5-39.9h12L120.4,172.5z M102.1,156.5l-7.4-14.7
		l-7.3,14.7H102.1z"/>
	<polygon class="st0" points="243.5,172.5 233.4,172.5 233.4,142.9 220.8,172.5 208.3,172.5 195.4,143.2 195.4,172.5 185.5,172.5 
		185.5,132.6 201.5,132.6 214.3,163.7 227.3,132.7 243.5,132.6 	"/>
	<rect x="249" y="132.6" class="st0" width="9.5" height="39.9"/>
	<path class="st0" d="M176.1,136c-2.7-2.3-6.1-3.4-9.9-3.4h-41.7v39.9l41.6,0c3.9,0,7.1-1,9.9-3.3c2.8-2.4,4.3-5.3,4.3-8.8v-15.6
		C180.3,141.2,178.9,138.2,176.1,136z M169.7,157c0,1.8-0.1,3.7-1.6,4.9c-1.4,1.2-3.7,1.3-5.7,1.3l-27.5,0v-20.9h27.5
		c2,0,4.1,0.3,5.5,1.5c1.4,1.1,1.7,2.8,1.7,4.7L169.7,157L169.7,157z"/>
	<polygon class="st0" points="469.6,132.5 459.4,132.5 459.4,162.7 428.3,132.4 414,132.4 414,172.1 424,172.1 424,143 455.7,172.1 
		459.4,172.1 459.4,172.1 462.3,172.1 469.1,172.1 469.1,172.1 469.6,172.1 	"/>
	<path class="st0" d="M404.8,135.8c-2.7-2.2-6.1-3.3-10-3.3h-6.3h-15.2H367c-3.9,0-7.3,1.1-10,3.3c-2.8,2.2-4.2,5.1-4.2,8.7v15.5
		c0,3.5,1.4,6.4,4.3,8.8c2.8,2.3,6.1,3.3,10,3.3l13.8,0l13.8,0c3.9,0,7.2-1,10-3.3c2.9-2.3,4.3-5.3,4.3-8.8v-15.5
		C408.9,141,407.5,138.1,404.8,135.8z M398.3,156.8c0,1.8-0.1,3.7-1.6,4.9c-1.4,1.2-3.7,1.3-5.7,1.3h-2.3c0,0,0,0,0,0l-7.9,0l-7.9,0
		c0,0,0,0,0,0h-2.3c-2,0-4.3-0.1-5.7-1.3c-1.5-1.2-1.6-3.1-1.6-4.9v-8.5c0-1.8,0.3-3.5,1.7-4.6c1.4-1.1,3.5-1.5,5.5-1.5h2.6h15.2
		h2.6c2,0,4.1,0.3,5.5,1.5c1.4,1.1,1.7,2.8,1.7,4.6L398.3,156.8L398.3,156.8z"/>
</g>
</svg>
