<svg id="Capa_1" data-name="Capa 1" xmlns="http://www.w3.org/2000/svg" viewBox="0 0 600 300"><defs><style>.cls-1{fill:#1e1e1e;}</style></defs><title>Mesa de trabajo 4</title><path class="cls-1" d="M144.39,119.23a.74.74,0,0,0-.67-.43h-6.35a.74.74,0,0,0-.67.43l-27.37,60.5a.78.78,0,0,0,0,.71.75.75,0,0,0,.62.33h7a.73.73,0,0,0,.67-.44l6.93-15.44h31.74l6.85,15.44a.72.72,0,0,0,.67.44h7.29a.76.76,0,0,0,.62-.33.78.78,0,0,0,.05-.71Zm8.59,38.1H127.87l12.59-28.1Z"/><path class="cls-1" d="M248.08,119.23h-7.9a.75.75,0,0,0-.61.32L219.8,148.69l-19.6-29.14a.74.74,0,0,0-.61-.32h-8.24a.74.74,0,0,0-.61,1.15l24.85,36.11V180a.73.73,0,0,0,.73.73h6.78a.73.73,0,0,0,.73-.73V156.41l24.85-36a.72.72,0,0,0,0-.76A.73.73,0,0,0,248.08,119.23Z"/><path class="cls-1" d="M313.82,156a25.56,25.56,0,0,0,5.54-1.84,19.22,19.22,0,0,0,5.4-3.75,16.21,16.21,0,0,0,3.55-5.39,18.73,18.73,0,0,0,1.26-7v-.17a18.55,18.55,0,0,0-1.26-6.88,16.19,16.19,0,0,0-3.59-5.48,20.31,20.31,0,0,0-7.44-4.59,29.62,29.62,0,0,0-10.16-1.63H281.29a.74.74,0,0,0-.74.73V180a.74.74,0,0,0,.74.74h6.78a.74.74,0,0,0,.73-.74v-22.6h16.07l17.2,23a.71.71,0,0,0,.58.29H331a.71.71,0,0,0,.65-.4.76.76,0,0,0-.06-.78Zm-25-29h17.85c4.68,0,8.35,1,10.91,3a9.62,9.62,0,0,1,3.76,8.13v.17a10.23,10.23,0,0,1-4.1,8.47,14.21,14.21,0,0,1-4.67,2.33,20.63,20.63,0,0,1-6,.82H288.81V127Z"/><path class="cls-1" d="M485.71,152.35c-3.25-2.69-8.34-4.82-15.13-6.33a59.5,59.5,0,0,1-8.05-2.16,17.51,17.51,0,0,1-4.77-2.46,7.07,7.07,0,0,1-2.27-2.79,9.28,9.28,0,0,1-.63-3.54v-.18a7.8,7.8,0,0,1,3.17-6.33c2.14-1.74,5.13-2.63,8.88-2.63a25.37,25.37,0,0,1,8.64,1.5,28.92,28.92,0,0,1,8.24,4.86.68.68,0,0,0,.55.16.76.76,0,0,0,.5-.29l4-5.23a.74.74,0,0,0-.13-1,36,36,0,0,0-9.77-5.65,33.92,33.92,0,0,0-11.8-1.89,25,25,0,0,0-8.14,1.28,21.05,21.05,0,0,0-6.49,3.56,16.15,16.15,0,0,0-4.31,5.44,15.52,15.52,0,0,0-1.54,6.84v.18a16.73,16.73,0,0,0,1.27,6.73,13.67,13.67,0,0,0,3.9,5.08,23.1,23.1,0,0,0,6.53,3.63,63,63,0,0,0,9.1,2.61,61.26,61.26,0,0,1,7.69,2.12,16.48,16.48,0,0,1,4.57,2.37,7.11,7.11,0,0,1,2.19,2.75,9.26,9.26,0,0,1,.63,3.45v.18a8.2,8.2,0,0,1-3.37,6.76c-2.29,1.8-5.41,2.72-9.29,2.72a26.83,26.83,0,0,1-10.77-2,35.05,35.05,0,0,1-9.33-6.27.75.75,0,0,0-.54-.19.77.77,0,0,0-.51.26l-4.21,5a.74.74,0,0,0,.07,1,38.6,38.6,0,0,0,11.59,7.39,36.41,36.41,0,0,0,13.45,2.41A28.26,28.26,0,0,0,478,180.4a20,20,0,0,0,6.7-3.57,16.83,16.83,0,0,0,4.4-5.61,16.6,16.6,0,0,0,1.6-7.31v-.17A14.12,14.12,0,0,0,485.71,152.35Z"/><path class="cls-1" d="M412.07,173.21H375.74V153.57H400.8a.74.74,0,0,0,.73-.74v-6.09a.73.73,0,0,0-.73-.73H375.74V126.79h35.91a.73.73,0,0,0,.73-.73V120a.73.73,0,0,0-.73-.73H368.22a.73.73,0,0,0-.73.73V180a.74.74,0,0,0,.73.74h43.85a.74.74,0,0,0,.74-.74v-6.09A.73.73,0,0,0,412.07,173.21Z"/></svg>