<?xml version="1.0" encoding="utf-8"?>
<!-- Generator: Adobe Illustrator 23.0.1, SVG Export Plug-In . SVG Version: 6.00 Build 0)  -->
<svg version="1.1" id="Capa_1" xmlns="http://www.w3.org/2000/svg" xmlns:xlink="http://www.w3.org/1999/xlink" x="0px" y="0px"
	 viewBox="0 0 600 300" style="enable-background:new 0 0 600 300;" xml:space="preserve">
<style type="text/css">
	.st0{fill:#181818;}
</style>
<g>
	<path class="st0" d="M265.1,194.1c-3.7,1.1-8.9,4-11.2,10.6c-0.9,2.3-1.1,4.3-1.1,6.3c0,4,1.4,7.8,3.7,10.9
		c5.2,6.3,13.8,8.3,22.7,5.7c1.7-0.3,5.2-2.6,5.2-4.9c0-0.9-0.3-1.7-1.1-2.3c-1.4-0.9-3.7-0.6-4.6-0.3c-7.5,4.6-14.7,1.4-17.8-3.7
		c-2.3-4.6-1.4-9.8,2.3-13.5c3.7-3.4,10.6-4.3,14.9-1.7c2.3,1.1,4.3,0.6,5.2-0.6c0.3-0.3,0.3-0.9,0.3-1.4c0-0.9-0.3-2.3-2.6-3.7
		C278.3,193.6,271.1,192.1,265.1,194.1z M265.7,194.1L265.7,194.1L265.7,194.1z"/>
	<path class="st0" d="M336.4,169.4L336.4,169.4c-0.9,0-1.7,0.3-2.3,1.1c-0.3,0.6-0.6,1.1-0.6,1.7v0.6l0.3,6.3c0,0,0,1.7,0,2.6
		c-4.6,0-7.8,0.3-9.8,0.6c-0.9,0-1.7,0.3-2.3,0.9c-0.6,0.6-1.1,1.4-1.1,2.6c0.3,2,1.7,3.4,3.7,3.4c2-0.3,4.9-0.6,9.5-0.6v4.9
		c0,11.2-0.3,25.6-2,31.9l0,0c0,2.3,1.4,3.7,3.4,3.7c1.7,0,2.9-1.1,3.4-3.4c1.7-6,2-19.5,2-30.5c0,0,0-5.7,0-6.9
		c0.6,0,10.3,0,10.3,0s3.2,0,4,0c0,0.3,0,6.6,0,6.6c0,10.6-0.3,24.1-1.7,29.9l0,0c0,2.3,1.4,3.7,3.4,3.7c1.7,0,2.6-1.1,3.4-3.4
		c1.7-6,2-19.5,2-30.5c0,0,0-5.5,0-6.6c0.6,0,10.3-0.3,10.3-0.3c1.7,0,3.4-1.7,3.4-3.7c-0.3-2-1.7-3.2-3.7-3.2c0,0-9.8,0.3-10.1,0.3
		c0-0.3-0.3-9.2-0.3-9.2c-0.3-1.1-0.9-2-1.4-2.6c-0.6-0.3-1.1-0.6-2-0.6c-0.9,0-1.7,0.3-2.3,0.9c-0.6,0.6-1.1,1.4-1.1,2.3
		c0,0,0.6,8.6,0.6,8.9c-0.3,0-1.7,0-1.7,0s-10.9,0-12.6,0c0-0.3-0.3-9.2-0.3-9.2c-0.3-1.1-0.6-2-1.4-2.6
		C338.1,169.4,337.2,169.1,336.4,169.4z"/>
	<path class="st0" d="M416.8,193c-3.4,0.3-4,2.9-4,3.4c0,0.3,0.3,14.7,0.3,16.4v12.6c0,0.6,0,1.1,0.3,1.7c0.6,0.9,1.4,1.4,2.3,1.4
		c1.1,0,2-0.6,3.2-1.4c0.9-0.9,1.1-1.7,1.1-2.3l0.3-13.2c0,0,0.3-5.5,0.3-5.7c0.3-0.3,3.4-4.9,8-5.7c2.6-0.3,4.6,0,6,1.4
		c3.4,3.2,3.4,10.3,2.9,18.4v5.5c0,1.7,1.1,2.9,2.9,3.2c1.1,0,2.6-0.6,3.2-1.4c0.6-0.6,0.9-1.1,0.9-2v-4.3v-2.6
		c0.3-7.2,0.9-16.4-4-21.3c-2.3-2.3-5.2-4-9.2-4l0,0c-4.3,0-7.2,0.9-10.9,3.7c0-0.9-0.3-1.7-0.3-1.7C419.1,193.8,418,193,416.8,193z
		"/>
	<g>
		<g>
			<path class="st0" d="M170.5,216.3L170.5,216.3v-1.7v-1.4c0-0.6,0-1.4,0-2c0-6.3-0.6-16.4-9.5-17.5c-3.7-0.6-9.2,0.3-12.4,3.2
				c-0.9,0.9-1.1,2-0.9,3.2c0.3,1.1,1.7,2.3,3.2,2.3c1.1,0.3,2-0.3,2.6-0.9c0.9-1.1,4.3-2.9,6.9-2c1.7,0.6,2.9,2.3,2.9,4.9
				c0,0,0,2.6,0,3.4c-2.9-1.7-8-2.6-13.5,0.6c-3.2,1.7-5.2,4.9-5.5,8.6c-0.3,4,1.4,7.8,4.6,10.1c2.9,2,7.8,2.6,12.1,1.1
				c1.1-0.3,2-0.9,3.2-1.4c0.3,0.6,0.3,1.1,0.9,1.4c0.6,0.6,1.7,0.9,2.3,0.6c0.6,0,1.1-0.3,1.1-0.6
				C170.5,226.6,170.5,221.1,170.5,216.3z M160.2,223.4c-2.6,0.6-4.9,0.3-6.9-1.4c-2.3-1.7-2-5.5-0.6-8c3.4-4.9,10.6-3.2,11.2-2.9
				c0,0.3,0.3,9.8,0.3,10.1C162.8,222.3,161.4,223.2,160.2,223.4z"/>
		</g>
	</g>
	<path class="st0" d="M482,224.9c0,2.3,1.7,4,4,4c2.3,0,4-1.7,4-4c0-2.3-1.7-4-4-4C483.8,220.9,482,222.6,482,224.9z"/>
	<path class="st0" d="M383.8,193.8L383.8,193.8c-8.6,3.7-12.6,9.8-12.6,18.7c0.3,7.2,3.4,12.4,9.5,14.9c4.3,1.4,11.2,2,15.8-0.3
		c6.6-3.4,9.5-10.6,7.5-18.4c-2.6-10.1-9.5-9.8-11.5-9.2c-2.6,0.6-4.3,1.4-4.3,2.6c0,0.3,0.3,1.1,1.4,1.1c2,0,5.2,1.1,6.6,3.7
		c2.3,3.7,2,9.2-0.6,12.4c-2.3,2.9-6,3.7-10.1,2.6c-2.6-0.9-4.9-2.6-6.3-5.2c-1.4-2.6-1.7-5.7-0.9-8.6c2-6.6,7.5-8.6,10.6-9.8
		c1.7-0.6,2.9-1.1,2.9-2c0-0.9-0.6-1.7-1.7-2.3C389.2,193.8,386.9,192.7,383.8,193.8z"/>
	<path class="st0" d="M303,193.8L303,193.8c-8.6,3.7-12.6,9.8-12.6,18.7c0.3,7.2,3.4,12.4,9.5,14.9c4.3,1.4,11.2,2,15.8-0.3
		c6.6-3.4,9.5-10.6,7.5-18.4c-2.6-10.1-9.5-9.8-11.5-9.2c-2.6,0.6-4.3,1.4-4.3,2.6c0,0.3,0.3,1.1,1.4,1.1c2,0,5.2,1.1,6.6,3.7
		c2.3,3.7,2,9.2-0.6,12.4c-2.3,2.9-6,3.7-10.1,2.6c-2.6-0.9-4.9-2.6-6.3-5.2c-1.4-2.6-1.7-5.7-0.9-8.6c2-6.6,7.5-8.6,10.6-9.8
		c1.7-0.6,2.9-1.1,2.9-2c0-0.9-0.6-1.7-1.7-2.3C308.5,193.8,306.5,192.7,303,193.8z"/>
	<path class="st0" d="M217.7,195L217.7,195c-0.9,0.3-1.4,1.1-1.7,2c-0.3,0.6-0.3,1.1-0.3,1.7s0,1.1,0.3,1.7
		c3.2,6,11.5,24.1,12.4,26.1c0,0.3-2.9,8.3-2.9,8.3c-1.7,5.2-2.9,8.3-3.2,10.6v0.3c0,1.1,0.3,1.7,0.9,2.6c1.1,1.4,2.9,1.7,4,1.1
		c1.1-0.3,1.7-0.9,1.7-1.7c0.9-5.2,11.8-35.6,16.1-44l1.1-2.3c1.1-2,2-3.4,1.4-4.6c-0.3-0.9-0.6-1.4-1.7-1.7
		c-3.2-0.9-4.6,0.9-5.7,2.6c-1.7,2.3-6.6,14.1-8.9,20.1c-0.3-0.9-3.2-6.9-3.2-6.9c-2-4.9-4.6-10.9-5.7-13.8
		C222,194.7,219.7,194.1,217.7,195z"/>
	<path class="st0" d="M463.1,193.3L463.1,193.3c-5.2,0.9-10.1,4.6-9.5,10.3c0.6,5.2,5.2,6.9,9.8,8.6h0.3c4.3,1.7,6.6,3.4,6.6,5.7
		c0,1.7-1.1,3.4-2.9,4.3c-2.6,1.1-6,0.9-8.3-3.2c-0.6-1.4-2.3-1.7-4-1.4c-1.7,0.3-2.9,1.4-2.9,2.6c0,3.2,6.3,8.6,11.2,8.6
		c5.2,0.3,9.2-1.4,11.8-4.6c2.3-2.6,3.2-7.5,1.1-11.2c-2-3.4-6.9-5.5-10.6-6.9l-2.3-0.9h-0.3c-0.9-0.3-2.6-1.1-2.9-2.3
		c0-0.9,0.3-1.4,1.1-2.6c1.7-1.7,5.7-1.1,7.8,0.3c0.9,0.9,2,1.4,3.2,1.4c0.9,0,1.7-0.6,2.3-1.7c0.6-0.9,0.3-2-0.6-3.2
		C472.6,194.7,468.2,192.4,463.1,193.3z"/>
	<path class="st0" d="M261.4,121.7c3.2-1.1,3.2,3.2,3.2,3.2c2.6,5.2,6.6,4,14.7,4.3c13.5,0.3,8.6-4,6-6.3c3.7,0,19.5-1.7,23.3,0.9
		c2.6,1.4,10.9,3.4,13.5,3.2c6.9-0.6,4.9-5.5,3.7-6.3c-2.9-2-10.6-4-8-5.5c13.5-6,10.9-15.5,10.9-15.5s17.5,0.3,18.4-13.5
		c0-2.9-1.4-3.4-2.9-6.6c-3.2-7.2-6.6-14.1-19-15.5c-1.4,0,1.7-6.9-6-12.1c-1.1-0.9-4-2-5.7-1.7c-4,0.9-1.4,6.9,2,13.5
		c0,0-2.9-4.3-11.8-8.9c-4-2-5.5-1.4-6.9,1.4c-1.7,4.3,4.6,10.3,8.3,12.9c1.7,0.9,0.9,3.2,0.6,3.4c-0.9,1.1-5.5-2.9-15.5-3.2
		c-30.5-1.1-37.4,24.4-35.9,43.4c-0.6-0.3-1.7,0-3.7,0.9C246.7,116,249.3,125.7,261.4,121.7z"/>
	<path class="st0" d="M342.1,141.6L342.1,141.6c-2.6-11.2-42-6.6-53.2-4.9c-19,0-54.6,2-35.6,5.7c23,0,40.5-1.7,75.6,2.9
		C346.1,146.4,355.9,144.4,342.1,141.6z"/>
	<path class="st0" d="M117.4,170.6L117.4,170.6L117.4,170.6z M139.2,203.6c-0.6-4-2.9-7.2-6.3-8.9c-3.2-1.4-6.6-1.4-9.8,0
		c-2.6,1.1-5.2,3.7-6.9,6.9v-1.1c0-12.1,0.3-17.2,1.1-29.9l0,0c0,0,0,0,0-0.3c0-0.3-0.3-0.9-0.6-1.1c-0.9-1.1-2.9-1.4-3.7-1.4
		c-1.7,0-3.2,1.4-3.2,3.4v54.3c0,2,1.4,3.2,3.7,3.4c7.5,0.6,14.4-2,19.3-7.2C137.5,217.1,140.1,209.7,139.2,203.6z M132.3,211.7
		L132.3,211.7L132.3,211.7L132.3,211.7z M131.8,211.7c-2.3,5.5-8.3,9.5-15.2,10.1l0,0v-13.2v-0.3c0,0,0,0.3,0.3,0.3
		c0.9,0.3,1.7,0.3,2.6,0c0.9-0.6,1.4-1.7,1.4-1.7c1.1-3.7,4-7.8,8.9-6.6c2.6,1.1,3.2,4.3,3.2,6S132.3,210.2,131.8,211.7z"/>
	<path class="st0" d="M183.2,228.3c-1.4-0.3-2.9-1.7-2.9-3.2v-54.3c0-2,1.4-3.2,3.4-3.2c1.1,0,2.9,0.3,3.4,1.4
		c0.3,0.3,0.6,0.9,0.6,1.1c0,0.3,0,0.6,0,0.6l-0.3-0.3c-0.9,12.6-1.1,17.8-1.1,29.6v1.7c1.7-3.2,4.3-6,6.9-7.2
		c3.2-1.4,6.6-1.4,9.8,0c3.4,1.7,5.7,4.6,6.3,8.6l0,0c1.1,6-1.4,13.5-6,18.1c-4.9,4.9-12.4,7.8-19.5,7.2L183.2,228.3z M195.5,200.7
		c-2.3,1.4-3.7,4-4,6c-0.9,1.7-2.6,2.3-4.3,1.7h-0.3v0.3V222h0.3c6.9-0.3,13.2-4.6,15.5-10.1c0.6-1.7,1.1-3.7,1.1-5.5
		c0-1.1-0.3-2.3-0.6-3.4c-0.6-1.4-1.4-2.3-2.6-2.9C198.7,199.6,197,199.9,195.5,200.7z M203.6,211.7L203.6,211.7L203.6,211.7
		L203.6,211.7z"/>
</g>
</svg>
