<svg id="Capa_1" data-name="Capa 1" xmlns="http://www.w3.org/2000/svg" viewBox="0 0 600 300"><defs><style>.cls-1{fill:#1e1e1e;}</style></defs><title>Mesa de trabajo 21</title><polygon class="cls-1" points="546 169.87 535.03 169.87 535.01 169.85 500.96 142.01 500.96 169.87 491.95 169.87 491.95 134.13 503.65 134.13 503.67 134.15 536.98 161.68 536.98 134.13 546 134.13 546 169.87"/><path class="cls-1" d="M481.16,152.08a12.06,12.06,0,0,1-2.53,7.46,19.21,19.21,0,0,1-6.95,5.91,32.32,32.32,0,0,1-9.74,3.64,60.73,60.73,0,0,1-12.45,1.21,59.23,59.23,0,0,1-12.29-1.21,30.44,30.44,0,0,1-9.71-3.63,19.11,19.11,0,0,1-6.95-5.88,12.29,12.29,0,0,1-2.55-7.5,12.54,12.54,0,0,1,2.53-7.61,19.49,19.49,0,0,1,7-6.07,42.51,42.51,0,0,1,9.7-3.63,59.7,59.7,0,0,1,12.29-1.06,51.52,51.52,0,0,1,12.45,1.2,36.76,36.76,0,0,1,9.72,3.49,19.64,19.64,0,0,1,6.95,6A12.65,12.65,0,0,1,481.16,152.08Zm-16.06,8.79c3.95-2.43,5.73-5.14,5.76-8.79s-1.85-6.55-5.73-8.94c-4.15-2.36-9.36-3.57-15.48-3.57-6.56,0-11.67,1.16-15.62,3.56s-5.87,5.35-5.88,9,1.82,6.37,5.86,8.78,9.14,3.42,15.64,3.42C456,164.28,461.15,163.14,465.1,160.87Z"/><polygon class="cls-1" points="406.87 134.3 406.87 169.7 397.46 169.7 397.46 140.67 373.61 169.7 364.3 169.7 340.73 140.7 340.73 169.7 331.32 169.7 331.32 134.3 345.85 134.3 368.88 162.85 392.51 134.3 406.87 134.3"/><rect class="cls-1" x="302.6" y="134.3" width="9.71" height="35.4"/><path class="cls-1" d="M253.43,147a120.46,120.46,0,0,0,12.73,1.44c1.6.2,3,.32,4.23.43.65.05,1.27.12,1.8.17,7.32.78,12.11,1.79,15.09,3.19s4.54,3.78,4.51,6.61c0,3.74-2.44,6.53-7.52,8.55-4.78,1.92-11.33,2.87-20,2.87-8,0-14-1-18.4-2.9-4.6-2-6.93-4.88-6.9-8.52v-1.09h9.88l.11.81c.26,1.91,1.66,3.36,4.28,4.42a35.79,35.79,0,0,0,12.21,1.71c5.22,0,9.4-.59,12.39-1.73,2.58-.93,4-2.23,4-3.69a1.9,1.9,0,0,0-.85-1.49,8.51,8.51,0,0,0-3.31-1.43c-.78-.2-3.11-.45-6.63-.83l-3-.33c-.45,0-.88-.08-1.29-.1-1.18-.11-2.19-.2-2.9-.2h-.11l-.13,0-.51-.13a108.92,108.92,0,0,1-14.37-1.92l-.08,0a17.5,17.5,0,0,1-6.4-3.3,6.71,6.71,0,0,1-2.24-5.29c0-3.27,2.57-6,7.39-7.82,4.55-1.82,10.6-2.71,18.51-2.72s13.24.84,17.2,2.6c4.18,1.72,6.48,4.55,6.48,7.94v.93H280l-.12-.79c-.25-1.59-1.52-2.77-4-3.69s-5.84-1.42-10.39-1.42h-.11c-5.3,0-9.08.52-11.57,1.57s-3.51,2-3.52,3.56a1.52,1.52,0,0,0,.51,1.31l.05,0,0,.06A6.11,6.11,0,0,0,253.43,147Z"/><polygon class="cls-1" points="224.97 134.3 224.97 169.7 214.25 169.7 179.93 141.64 179.93 169.7 171.26 169.7 171.26 134.3 182.72 134.3 216.31 162.04 216.31 134.3 224.97 134.3"/><polygon class="cls-1" points="161.33 163.55 161.33 169.7 116.93 169.7 116.93 134.3 160.3 134.3 160.3 140.18 126.48 140.18 126.48 148.18 157.78 148.18 157.78 154.05 126.48 154.05 126.48 163.55 161.33 163.55"/><path class="cls-1" d="M90.25,147.05c1.91-.71,2.54-1.47,2.61-3.1a3,3,0,0,0-2.18-3.09c-1.8-.65-5.38-1-10.67-1H63.59v8.3H79.32C84.26,148.18,88,147.79,90.25,147.05Zm11,5.87a7.73,7.73,0,0,1,3.83,6.54,6.24,6.24,0,0,1-1.51,4.1,9.06,9.06,0,0,1-3.69,3.2,20.15,20.15,0,0,1-6.8,2.33,68.57,68.57,0,0,1-11.1.61H54.17V134.3h28a70.34,70.34,0,0,1,8.76.31,23.74,23.74,0,0,1,5.52,1.08,11.34,11.34,0,0,1,5,3.07,6.82,6.82,0,0,1,1.72,4.59A6.58,6.58,0,0,1,99.93,149a14.05,14.05,0,0,1-3.52,1.71l-.28.1.28.07A15.62,15.62,0,0,1,101.24,152.92Zm-6.46,6.24a3.79,3.79,0,0,0-2.69-3.86c-2.14-1-5.93-1.4-11.58-1.4H63.59v9.94H82c4.84,0,8.4-.45,10.33-1.28A3.33,3.33,0,0,0,94.78,159.16Z"/></svg>