<svg id="Capa_1" data-name="Capa 1" xmlns="http://www.w3.org/2000/svg" viewBox="0 0 600 300"><defs><style>.cls-1{fill:#1e1e1e;}</style></defs><title>Mesa de trabajo 3</title><path class="cls-1" d="M146.68,120.28a29,29,0,0,0-13.19,3c-4.08,2-8.86,5-10.76,9.12V102.83h-9.51v82.93h9.51V175.61c1.9,3.77,6.3,6.59,10.21,8.46a28.57,28.57,0,0,0,12.66,2.8c9.55,0,17.35-3.21,23.67-9.62s9.4-14.37,9.4-23.87a32.6,32.6,0,0,0-9.3-23.45A30.27,30.27,0,0,0,146.68,120.28Zm16.19,51.46a23.13,23.13,0,0,1-17.41,7.56q-9.35,0-16.54-7.53a24.84,24.84,0,0,1-7.19-17.7,26.45,26.45,0,0,1,7-18.6,22.25,22.25,0,0,1,17-7.62,23.2,23.2,0,0,1,17.15,7.3A24.56,24.56,0,0,1,170.06,153,26.1,26.1,0,0,1,162.87,171.74Z"/><rect class="cls-1" x="189.27" y="102.83" width="7.13" height="82.93"/><path class="cls-1" d="M262.93,131.83a23.86,23.86,0,0,0-9.88-8.57,29.79,29.79,0,0,0-13.31-3c-9.51,0-17.36,3.2-23.69,9.59s-9.47,14.34-9.47,23.85a32.54,32.54,0,0,0,9.32,23.59q9.28,9.56,23.28,9.56a30.72,30.72,0,0,0,13.72-3.12,24,24,0,0,0,10-8.61v10.62h9V123.5h-9Zm-6.62,39.76q-7.2,7.71-16.89,7.71a23.23,23.23,0,0,1-17.21-7.3,24.61,24.61,0,0,1-7.16-17.93,26,26,0,0,1,7.19-18.68,23.14,23.14,0,0,1,17.41-7.54q9.4,0,16.63,7.54A24.69,24.69,0,0,1,263.5,153,26.25,26.25,0,0,1,256.31,171.59Z"/><path class="cls-1" d="M337.07,131.83a24,24,0,0,0-9.79-8.57,28.87,28.87,0,0,0-13.08-3c-9.51,0-17.35,3.2-23.68,9.59s-9.45,14.34-9.45,23.85a32.57,32.57,0,0,0,9.31,23.59q9.3,9.56,23.29,9.56a30.45,30.45,0,0,0,13.4-3,23.83,23.83,0,0,0,10-8.31v30.83h8.55V123.5h-8.55Zm-6.27,39.76q-7.19,7.71-16.89,7.71A23.23,23.23,0,0,1,296.7,172a24.65,24.65,0,0,1-7.16-17.93,26,26,0,0,1,7.19-18.68,23.16,23.16,0,0,1,17.41-7.54q9.42,0,16.63,7.54A24.69,24.69,0,0,1,338,153,26.25,26.25,0,0,1,330.8,171.59Z"/><path class="cls-1" d="M403.61,152.91a76.37,76.37,0,0,1-.56,11.75,18.3,18.3,0,0,1-2,5.87,17.1,17.1,0,0,1-6.68,6.43,20.13,20.13,0,0,1-9.63,2.23c-6.43,0-11.1-1.8-13.91-5.4s-4.25-9.73-4.25-18.4V123.5h-9v31.32c0,11.47,2.57,19.68,6.61,24.63s10.92,7.42,20.08,7.42a27.57,27.57,0,0,0,11.09-2,22.16,22.16,0,0,0,8.32-6.53v7.44h9.5V123.5h-9.5Z"/><path class="cls-1" d="M486.78,155.43c0-10.52-2.83-19.06-8.86-25.63s-13.71-9.86-23.26-9.86c-9.74,0-17.69,3.16-24,9.47s-9.36,14.3-9.36,24a32.87,32.87,0,0,0,9.6,23.73A31.44,31.44,0,0,0,454.4,187c7,0,13.1-.84,18.4-4.6a34.14,34.14,0,0,0,12.33-15.15h-9.24c-2.08,4.75-5,6.81-8.84,9.28s-8.1,3.19-12.87,3.19c-6.74,0-12.36-1.18-16.87-5.45a23.35,23.35,0,0,1-7.5-15.81h57ZM430,151.31c1-7.37,3.58-12.91,7.85-16.74a23.08,23.08,0,0,1,15.65-6.36,24.26,24.26,0,0,1,16.11,6.25c4.12,3.57,7,9.48,8.49,16.85Z"/><polygon class="cls-1" points="465.43 114.24 453.36 93.56 444.58 93.56 460.12 114.24 465.43 114.24"/></svg>