<svg id="Capa_1" data-name="Capa 1" xmlns="http://www.w3.org/2000/svg" viewBox="0 0 600 300"><defs><style>.cls-1{fill:#1e1e1e;}</style></defs><title>Mesa de trabajo 22</title><path class="cls-1" d="M318,140q11.16-11.42,11.16-26.24c0-8.11-2.79-15.75-8.38-23a279.4,279.4,0,0,1,27.76-17.51l-.36-.93a329.59,329.59,0,0,0-28.42,17.61q-11.28-12.17-29.84-18.16a132.64,132.64,0,0,0-40.56-5.92,169.62,169.62,0,0,0-58.16,10.51q-29,10.49-47.37,30.4t-18.35,40.44c0,8,3.55,14.68,10.59,20.2s16.95,8.29,29.7,8.29q29.26,0,55.23-19.45T247,117c0-5-2.35-9.16-7-12.5a27.45,27.45,0,0,0-16.36-5q-19.65,0-41.85,15.8c-.4.25-.26,1.39,1.36.33q21.61-14.92,40.71-14.93a26,26,0,0,1,15.4,4.62c4.38,3.06,6.57,6.91,6.57,11.6,0,8.74-4.54,17.42-13.71,26s-20.82,15.92-34.95,21.89-26.63,8.89-37.42,8.89a36.8,36.8,0,0,1-23-7.66c-6.75-5.13-10.08-11.51-10.08-19,0-12.74,5.69-25.46,17.1-38.3s26.72-23,45.86-30.51A163.15,163.15,0,0,1,249.73,67q23.94,0,42.17,6.72c12.24,4.53,21.08,10.13,26.62,16.78a372.7,372.7,0,0,0-63.66,58.13l-11.3,12.81q-26.16,30-40.6,43.5a110.56,110.56,0,0,1-30.83,20.82,87.37,87.37,0,0,1-35.72,7.2c-11.24,0-19.76-1.56-25.48-4.68s-8.6-6.64-8.6-10.29a1.9,1.9,0,0,1,.42-1.18,7.49,7.49,0,0,0,4.76,2.1,6.06,6.06,0,0,0,4.56-2,6.64,6.64,0,0,0,2-4.86,6.15,6.15,0,0,0-2-4.83,6.91,6.91,0,0,0-5-1.89,7.79,7.79,0,0,0-5.86,2.62,8.67,8.67,0,0,0-2.42,6.21q0,9.06,9.94,14.54t26.87,5.54a100.18,100.18,0,0,0,23-2.8,126.47,126.47,0,0,0,24.64-8.72,171.3,171.3,0,0,0,24.48-13.92,147.89,147.89,0,0,0,21-17.27,213.64,213.64,0,0,0,18.87-22.2l21.22-28.5q4.88-6.53,21-23.34t29.7-25.79a18,18,0,0,1,5,12.73q0,15.06-14.45,32t-27,19.22c-4.92-3.22-9.68-4.8-14.15-4.8-3.84,0-5.8,1.12-5.8,3.29,0,1,.68,2,2,2.83a12.15,12.15,0,0,0,6.21,1.28,74.39,74.39,0,0,0,11.4-.93q5.91,4.56,5.92,13.05c0,6.22-3.25,14.4-9.82,24.41a92.09,92.09,0,0,1-24.64,25.45q-14.82,10.38-25.95,10.38a10.76,10.76,0,0,1-5.92-1.7,5.59,5.59,0,0,1-2.69-5.05q0-9.71,16.42-22.77t34-15.86l-.12-.72q-16.49,2-34,15.37t-17.5,23.77a7.14,7.14,0,0,0,3.13,5.78,12.8,12.8,0,0,0,7.83,2.38c8.18,0,17.44-2.27,27.69-6.76A58.72,58.72,0,0,0,281.8,205c6.27-8.82,9.42-18.15,9.42-27.85q0-14-7-20.15C299.24,153.21,310.52,147.58,318,140Z"/><path class="cls-1" d="M420.26,225.79c-7.39,3.53-13.15,5.27-17.22,5.27a7.24,7.24,0,0,1-4.84-1.81,5.23,5.23,0,0,1-2.12-3.95c0-2.93,4-8.44,11.85-16.44a65.3,65.3,0,0,0,25.1-7.78c7.53-4.21,11.31-8.22,11.31-12a3.06,3.06,0,0,0-1.36-2.58,5.06,5.06,0,0,0-3.17-1c-6.78,0-16.12,3.88-28.11,11.67a53.13,53.13,0,0,0-12.44,10.7l-.12-.16c-2.63,2.56-5.22,3.83-7.86,3.83a6.63,6.63,0,0,1-5.55-2.69c7-8.14,10.52-14.41,10.52-18.75,0-4.14-2.21-6.27-6.65-6.27s-10.62,1.67-18.29,5.05A65.06,65.06,0,0,0,350.93,203a37.64,37.64,0,0,0-4.65,5.82c-9,7.73-16.51,13.28-22.42,16.55-6.23,3.49-10.83,5.19-13.79,5.19-2.49,0-3.72-1.13-3.7-3.31a4.87,4.87,0,0,1,.9-2.68c.62-.93,3.19-3.79,7.71-8.61s9.12-9.37,13.69-13.62,7.56-7.87,9.05-10.75l-6.11-6.87a20.83,20.83,0,0,1-9.51,2.62,7.89,7.89,0,0,1-4.62-1.13,3.1,3.1,0,0,1-1.59-2.29,2.78,2.78,0,0,1,.12-.64,4.66,4.66,0,0,0,2.66,1,4.06,4.06,0,0,0,3.1-1.36,4.68,4.68,0,0,0,1.27-3.27,4.19,4.19,0,0,0-1.24-3.14A3.68,3.68,0,0,0,319,175.2a5.19,5.19,0,0,0-3.84,1.92,6.23,6.23,0,0,0-1.68,4.38,6.94,6.94,0,0,0,3.64,6.12,58.27,58.27,0,0,1-5.92,5.3l-17.8,14.64.85.84,24.51-20.16a10,10,0,0,0,2.4.34,24.61,24.61,0,0,0,8.94-1.83l.46.86a171.7,171.7,0,0,1-13,13.78q-9.41,9.24-12.28,13.71a16.44,16.44,0,0,0-2.81,8.88,8.31,8.31,0,0,0,1.89,5.68,6.93,6.93,0,0,0,5.34,2.15q10.63,0,34.86-20.13A23,23,0,0,0,342,222.12a9.37,9.37,0,0,0,2.36,6.77,7.53,7.53,0,0,0,5.7,2.43c4.35,0,9.82-2.09,16.38-6.19a97.32,97.32,0,0,0,18.43-15.26,8.06,8.06,0,0,0,6.2,2.82,10.75,10.75,0,0,0,6.12-2.06A20.89,20.89,0,0,0,393.69,222q0,9.81,9.48,9.81c4.61,0,10.69-1.83,18.37-5.51s16.13-9.62,25.4-17.79l-.74-.83C436.33,216.19,427.65,222.25,420.26,225.79Zm2-29.63a79.44,79.44,0,0,1,11.12-7.62,14.89,14.89,0,0,1,6.72-1.88c1.71,0,2.55.75,2.55,2.24,0,2.1-2,4.69-5.88,7.93A47.76,47.76,0,0,1,422,204.65c-5.88,2-10,3.06-12.34,3.06A96.13,96.13,0,0,1,422.29,196.16Zm-41.87,16.65a67.71,67.71,0,0,1-16.11,12.31c-6.08,3.32-10.77,5-14,5a5.81,5.81,0,0,1-3.76-1.32,3.89,3.89,0,0,1-1.63-3c0-3.79,6-11.49,17.91-23.27S383.69,185,389.57,185a6.24,6.24,0,0,1,3.83,1.39,4.46,4.46,0,0,1,1.64,3.58c0,2.81-1.25,6.12-3.85,9.92A95.82,95.82,0,0,1,380.42,212.81Z"/><path class="cls-1" d="M500.53,207.67C490.9,216,482.92,222,476.71,225.4s-10.81,5.18-13.75,5.18c-2.51,0-3.75-1.12-3.75-3.3a5.2,5.2,0,0,1,.91-2.68c.66-.93,3.19-3.79,7.72-8.61s9.13-9.38,13.67-13.62,7.59-7.88,9.06-10.75l-6.1-6.88a20.72,20.72,0,0,1-9.51,2.63,7.82,7.82,0,0,1-4.6-1.13c-1.12-.77-1.61-1.53-1.61-2.28a4.65,4.65,0,0,1,.12-.64,4.67,4.67,0,0,0,2.68,1,4,4,0,0,0,3.09-1.36,4.64,4.64,0,0,0,1.28-3.27,4.22,4.22,0,0,0-1.25-3.15,3.69,3.69,0,0,0-2.76-1.31,5.13,5.13,0,0,0-3.84,1.91,6.15,6.15,0,0,0-1.69,4.38,6.91,6.91,0,0,0,3.63,6.12,56.38,56.38,0,0,1-5.93,5.31l-17.77,14.64.84.83,24.54-20.16a9.55,9.55,0,0,0,2.37.34,24.65,24.65,0,0,0,8.94-1.83l.49.86a171.35,171.35,0,0,1-13,13.79q-9.37,9.21-12.27,13.7a16.55,16.55,0,0,0-2.83,8.88,8.54,8.54,0,0,0,1.92,5.69,7,7,0,0,0,5.35,2.15q11.39,0,38.6-23.3Z"/></svg>