<svg id="Capa_1" data-name="Capa 1" xmlns="http://www.w3.org/2000/svg" viewBox="0 0 600 300"><defs><style>.cls-1{fill:#1e1e1e;}</style></defs><title>Mesa de trabajo 27</title><path class="cls-1" d="M89.5,150.23A32.21,32.21,0,0,0,91.56,162a25.16,25.16,0,0,0,5.66,8.84,23.94,23.94,0,0,0,8.49,5.5,28.66,28.66,0,0,0,10.58,1.9,14.33,14.33,0,0,0,5.93-1.35,28.2,28.2,0,0,0,5.63-3.45,32.3,32.3,0,0,0,4.8-4.7,28,28,0,0,0,3.41-5.07l4.11,2.83a42.52,42.52,0,0,1-4.57,6.12,30,30,0,0,1-6,5.16,29.48,29.48,0,0,1-7.64,3.56,30.71,30.71,0,0,1-9.38,1.36,34.67,34.67,0,0,1-13.72-2.6,33.06,33.06,0,0,1-10.59-7,31.46,31.46,0,0,1-6.82-10.35,33.84,33.84,0,0,1-2.37-12.53,32.9,32.9,0,0,1,1.13-8.53,32.27,32.27,0,0,1,3.22-7.83,33.87,33.87,0,0,1,5.08-6.71,32.91,32.91,0,0,1,15.08-8.64,36.1,36.1,0,0,1,9.57-1.2,28.19,28.19,0,0,1,8.84,1.35,31.36,31.36,0,0,1,13.53,8.81,41.19,41.19,0,0,1,4.65,6.12l-3.91,2.87A32.75,32.75,0,0,0,126.88,126a26.29,26.29,0,0,0-5.55-3,14.76,14.76,0,0,0-5.39-1.09,26.71,26.71,0,0,0-10.23,2,24.66,24.66,0,0,0-8.41,5.62,26.26,26.26,0,0,0-5.7,9A31.56,31.56,0,0,0,89.5,150.23Z"/><path class="cls-1" d="M181.54,174.7a6.28,6.28,0,0,0,1.32,3.91,8.9,8.9,0,0,0,3.29,2.68h-8.41a7,7,0,0,1-2.79-2.52,7.14,7.14,0,0,1-1.16-4.07c-.93.65-2,1.43-3.14,2.32a37.5,37.5,0,0,1-3.84,2.52,26.09,26.09,0,0,1-4.73,2,19.33,19.33,0,0,1-5.74.81,11.61,11.61,0,0,1-4.73-.93,10.38,10.38,0,0,1-5.81-6.36,14.64,14.64,0,0,1-.82-4.76,13.08,13.08,0,0,1,1.2-5.7,16.6,16.6,0,0,1,3.3-4.62,22.68,22.68,0,0,1,4.92-3.64,44.34,44.34,0,0,1,6-2.83c2.13-.82,4.34-1.55,6.67-2.21s4.54-1.2,6.75-1.75v-2.48a25.26,25.26,0,0,0-.51-5.58,9,9,0,0,0-1.63-3.64,5.86,5.86,0,0,0-2.79-2,12.73,12.73,0,0,0-4.11-.58,10.43,10.43,0,0,0-4.11.81,11.16,11.16,0,0,0-3.29,2.13,11.42,11.42,0,0,0-2.33,3.18,11.8,11.8,0,0,0-1.16,3.84H147a11.77,11.77,0,0,1,2.09-5.58,14.81,14.81,0,0,1,4.27-4.11,19.51,19.51,0,0,1,5.81-2.56,25.73,25.73,0,0,1,6.71-.89,26,26,0,0,1,7.52.93,12.72,12.72,0,0,1,4.85,2.56,9,9,0,0,1,2.59,4,17.1,17.1,0,0,1,.78,5.27V174.7Zm-7.71-21.52a68.56,68.56,0,0,0-7.41,2.48A44.63,44.63,0,0,0,159.6,159a21.09,21.09,0,0,0-5,4.08,7.14,7.14,0,0,0-1.94,4.73,7.71,7.71,0,0,0,.73,3.37,10.26,10.26,0,0,0,1.94,2.79,9.46,9.46,0,0,0,2.79,1.9,8.11,8.11,0,0,0,3.3.7,10.65,10.65,0,0,0,3.41-.51,14.83,14.83,0,0,0,3-1.35,26.73,26.73,0,0,0,2.91-1.9c1-.7,1.94-1.44,3-2.21V153.18Z"/><path class="cls-1" d="M197.75,132.09h.19l1.28,9.85a35.7,35.7,0,0,1,3.8-4,27,27,0,0,1,4.11-3.1,19.64,19.64,0,0,1,4.3-2,13.11,13.11,0,0,1,4.31-.74,13.44,13.44,0,0,1,3.72.54,11.94,11.94,0,0,1,3.49,1.63l-2.64,7a16.43,16.43,0,0,0-2.17-1.16,8.74,8.74,0,0,0-1.82-.59,10.37,10.37,0,0,0-1.9-.19c-.66,0-1.44,0-2.25,0a10.46,10.46,0,0,0-4.07.82,15.1,15.1,0,0,0-3.69,2.17,18.75,18.75,0,0,0-3,3,19.56,19.56,0,0,0-2.17,3.45v32.57H191.5v-46.8Z"/><path class="cls-1" d="M245.7,182.33a24.89,24.89,0,0,1-9.84-1.94,24.53,24.53,0,0,1-7.8-5.27,24.22,24.22,0,0,1-5.11-7.79,24.6,24.6,0,0,1-1.83-9.54,27.66,27.66,0,0,1,1.83-10,25.68,25.68,0,0,1,5.11-8.18,23.66,23.66,0,0,1,7.8-5.5,24.11,24.11,0,0,1,9.84-2,25.94,25.94,0,0,1,9.77,1.82,24.14,24.14,0,0,1,7.76,5,23.66,23.66,0,0,1,5.12,7.52,23.13,23.13,0,0,1,1.82,9.27A29.35,29.35,0,0,1,268.35,166a27.07,27.07,0,0,1-5.12,8.45,23.88,23.88,0,0,1-7.76,5.7A21.63,21.63,0,0,1,245.7,182.33Zm1.86-3.52a10.9,10.9,0,0,0,5.55-1.48,14.63,14.63,0,0,0,4.38-4,19.55,19.55,0,0,0,2.87-5.74,23.54,23.54,0,0,0,1-6.9,49.29,49.29,0,0,0-.93-9.81,23.65,23.65,0,0,0-3.11-8,16.05,16.05,0,0,0-5.58-5.35,16.61,16.61,0,0,0-8.37-1.93,10,10,0,0,0-5,1.39,14.75,14.75,0,0,0-4.31,3.8,19.53,19.53,0,0,0-3,5.62,21.13,21.13,0,0,0-1.13,6.86,40.52,40.52,0,0,0,1.17,9.93,26.62,26.62,0,0,0,3.41,8.06,18,18,0,0,0,5.5,5.47A14.21,14.21,0,0,0,247.56,178.81Z"/><path class="cls-1" d="M285.87,150.23A32.43,32.43,0,0,0,287.92,162a25.44,25.44,0,0,0,5.66,8.84,24.12,24.12,0,0,0,8.49,5.5,28.71,28.71,0,0,0,10.59,1.9,14.36,14.36,0,0,0,5.93-1.35,27.85,27.85,0,0,0,5.62-3.45,32.37,32.37,0,0,0,4.81-4.7,28.52,28.52,0,0,0,3.41-5.07l4.11,2.83a43.27,43.27,0,0,1-4.57,6.12,30.25,30.25,0,0,1-6,5.16,29.48,29.48,0,0,1-7.64,3.56,30.71,30.71,0,0,1-9.38,1.36,34.72,34.72,0,0,1-13.73-2.6,32.91,32.91,0,0,1-10.58-7,31.33,31.33,0,0,1-6.83-10.35,33.56,33.56,0,0,1-1.27-21.1,32.41,32.41,0,0,1,3.21-7.83,32.68,32.68,0,0,1,20.16-15.35,36.75,36.75,0,0,1,9.62-1.2,28,28,0,0,1,8.84,1.36,31.22,31.22,0,0,1,13.53,8.8,42.6,42.6,0,0,1,4.65,6.12l-3.92,2.87a32.44,32.44,0,0,0-9.38-10.51,26.43,26.43,0,0,0-5.54-3,14.76,14.76,0,0,0-5.39-1.09,26.72,26.72,0,0,0-10.24,2,25.06,25.06,0,0,0-8.41,5.66,26.56,26.56,0,0,0-5.7,9A31.76,31.76,0,0,0,285.87,150.23Z"/><path class="cls-1" d="M351,133v34.39a6.76,6.76,0,0,0,.93,3.41,8.92,8.92,0,0,0,2.48,2.79,12.67,12.67,0,0,0,3.65,1.86,14,14,0,0,0,4.49.7,7.85,7.85,0,0,0,3.3-.74,15.55,15.55,0,0,0,3.29-2,24.24,24.24,0,0,0,3.11-2.91,32.47,32.47,0,0,0,2.67-3.41V133h7.64v48.31h-7.64V172.8a30.07,30.07,0,0,1-4.19,4.18,31,31,0,0,1-4.49,3,20.54,20.54,0,0,1-4.46,1.78,16.35,16.35,0,0,1-4.19.58,13.48,13.48,0,0,1-5.58-1.16,14,14,0,0,1-4.54-3.22,15.13,15.13,0,0,1-4.22-10.58V133Z"/><path class="cls-1" d="M414.58,182.33a25,25,0,0,1-9.85-1.94A24.2,24.2,0,0,1,390,157.79a27.87,27.87,0,0,1,1.82-10,25.88,25.88,0,0,1,5.12-8.18,23.72,23.72,0,0,1,7.79-5.5,24.19,24.19,0,0,1,9.85-2,25.94,25.94,0,0,1,9.77,1.82,24.25,24.25,0,0,1,7.76,5,23.47,23.47,0,0,1,5.11,7.52,23.14,23.14,0,0,1,1.83,9.27A29.13,29.13,0,0,1,437.22,166a26.86,26.86,0,0,1-5.11,8.45,24,24,0,0,1-7.76,5.7A21.63,21.63,0,0,1,414.58,182.33Zm1.82-3.52a10.9,10.9,0,0,0,5.55-1.48,14.63,14.63,0,0,0,4.38-4,19.55,19.55,0,0,0,2.87-5.74,23.54,23.54,0,0,0,1-6.9,49.29,49.29,0,0,0-.93-9.81,23.65,23.65,0,0,0-3.11-8,16.05,16.05,0,0,0-5.58-5.35,16.61,16.61,0,0,0-8.37-1.93,10,10,0,0,0-5,1.39,14.75,14.75,0,0,0-4.31,3.8,19.53,19.53,0,0,0-3,5.62,21.13,21.13,0,0,0-1.13,6.86,40.52,40.52,0,0,0,1.17,9.93,26.62,26.62,0,0,0,3.41,8.06,18,18,0,0,0,5.5,5.47A14.41,14.41,0,0,0,416.4,178.81Z"/><path class="cls-1" d="M452.61,132.09h.2l1.28,9.85a35.7,35.7,0,0,1,3.8-4,27,27,0,0,1,4.11-3.1,19.64,19.64,0,0,1,4.3-2,13.06,13.06,0,0,1,4.3-.74,13.57,13.57,0,0,1,3.73.54,11.77,11.77,0,0,1,3.48,1.63l-2.63,7a17.08,17.08,0,0,0-2.17-1.16,8.63,8.63,0,0,0-1.83-.59,10.34,10.34,0,0,0-1.89-.19c-.66,0-1.44,0-2.25,0a10.42,10.42,0,0,0-4.07.82,15.1,15.1,0,0,0-3.69,2.17,18.75,18.75,0,0,0-3,3,19.56,19.56,0,0,0-2.17,3.45v32.57h-7.68v-46.8Z"/><path class="cls-1" d="M498.9,182.33a21.84,21.84,0,0,1-8.83-1.82,23.63,23.63,0,0,1-7.22-5A23.6,23.6,0,0,1,476.19,159a34.19,34.19,0,0,1,1.62-10.73,26.1,26.1,0,0,1,4.62-8.53A20.91,20.91,0,0,1,499,132.09a20,20,0,0,1,8.3,1.67,20.3,20.3,0,0,1,12.29,18.64h-36a29,29,0,0,0,1.32,9,22.87,22.87,0,0,0,3.72,7.17,17.77,17.77,0,0,0,5.66,4.73A15.69,15.69,0,0,0,501.5,175a20.52,20.52,0,0,0,6.36-1,24,24,0,0,0,5.47-2.56,17.07,17.07,0,0,0,4.11-3.65,12,12,0,0,0,2.32-4.22l1.17.58a24.32,24.32,0,0,1-3.34,7.06A28.45,28.45,0,0,1,512.4,177a23.29,23.29,0,0,1-6.44,3.88A17.57,17.57,0,0,1,498.9,182.33Zm9.54-33.76h.93a12.37,12.37,0,0,0-1-5.08,11.74,11.74,0,0,0-2.87-4.07,13,13,0,0,0-4.27-2.72,13.8,13.8,0,0,0-5.23-1,10.56,10.56,0,0,0-4.5,1,13.22,13.22,0,0,0-3.84,2.68,15.3,15.3,0,0,0-2.79,4.07,14.24,14.24,0,0,0-1.28,5.08Z"/></svg>