<svg id="Capa_1" data-name="Capa 1" xmlns="http://www.w3.org/2000/svg" viewBox="0 0 600 300"><defs><style>.cls-1{fill:#1e1e1e;}</style></defs><title>Mesa de trabajo 29_1</title><path class="cls-1" d="M77.36,123.87c0-23.68,11.79-35.08,31.19-35.08,9.49,0,17.79,4.1,22.49,10.6a3.5,3.5,0,0,1,.7,2.1,3.22,3.22,0,0,1-5.8,1.89A21.76,21.76,0,0,0,108.55,95c-15.4,0-24.19,9.29-24.19,28.88,0,20.8,8.79,28.8,24.19,28.8,6.6,0,13.49-2.6,17.39-8.21a3.22,3.22,0,0,1,5.8,1.92,3,3,0,0,1-.6,1.88c-4.39,6.4-13.39,10.61-22.59,10.61C89.15,158.87,77.36,148.47,77.36,123.87Z"/><path class="cls-1" d="M220.19,151.07a3.2,3.2,0,1,1,0,6.39H189.41a3.37,3.37,0,0,1-3.4-3.4V92.79a3.4,3.4,0,1,1,6.8,0v58.28Z"/><path class="cls-1" d="M281,137.57l-7.3,18.28a3.48,3.48,0,0,1-3.3,2.4,3.41,3.41,0,0,1-3.39-3.39,4,4,0,0,1,.29-1.5l24.39-61.67a3.32,3.32,0,0,1,3.2-2.31,3.52,3.52,0,0,1,3.3,2.31l24.39,61.67a5.26,5.26,0,0,1,.29,1.5A3.5,3.5,0,0,1,316,156l-7.2-18.39Zm13.89-36.79-11.78,30.59h23.68Z"/><path class="cls-1" d="M382.3,154.86a3.4,3.4,0,0,1-6.79,0V93.59a3.36,3.36,0,0,1,3.4-3.39H398.8a18.65,18.65,0,0,1,19.09,19.08c0,10.31-7.09,18.59-17.89,19.09l18.29,24.4a3.22,3.22,0,0,1,.7,2.09,3.42,3.42,0,0,1-6.3,1.81l-20.3-28.3H382.3Zm0-32.68H399c7,0,12-5.7,12-12.9,0-7.39-5.09-12.89-12.29-12.89H382.3Z"/><path class="cls-1" d="M480.76,137.57l-7.3,18.28a3.48,3.48,0,0,1-3.3,2.4,3.41,3.41,0,0,1-3.39-3.39,3.84,3.84,0,0,1,.29-1.5l24.39-61.67a3.31,3.31,0,0,1,3.2-2.31,3.54,3.54,0,0,1,3.3,2.31l24.39,61.67a5,5,0,0,1,.3,1.5,3.51,3.51,0,0,1-6.8,1.1l-7.2-18.39Zm13.89-36.79-11.8,30.59h23.7Z"/><path class="cls-1" d="M156.18,210.16a.9.9,0,1,1-1.79,0V193.79a.9.9,0,0,1,1.79,0Z"/><path class="cls-1" d="M180,210.85a.91.91,0,0,1-.9-.9V194a.91.91,0,0,1,.9-.9h4.48c3.71,0,5.37,1.84,5.37,4.69a3.67,3.67,0,0,1-2.55,3.59,4.19,4.19,0,0,1,3.37,4.4c0,3.05-1.92,5.06-5.4,5.06Zm.89-10h3.56c2.35,0,3.59-1.21,3.59-3.06s-1.14-3.06-3.59-3.06h-3.56Zm0,8.35h4.35c2.4,0,3.61-1.29,3.61-3.42s-1.37-3.4-3.61-3.4h-4.35Z"/><path class="cls-1" d="M214.62,205.6l-1.92,4.82a.93.93,0,0,1-.87.64.91.91,0,0,1-.9-.9,1.09,1.09,0,0,1,.08-.39l6.43-16.26a.87.87,0,0,1,.84-.61.93.93,0,0,1,.87.61l6.43,16.26a1.08,1.08,0,0,1,.08.39.92.92,0,0,1-1.79.29L222,205.6Zm3.66-9.7L215.17,204h6.25Z"/><path class="cls-1" d="M249,210.16a.9.9,0,1,1-1.79,0V194a.89.89,0,0,1,.89-.9h5.25a4.92,4.92,0,0,1,5,5,4.85,4.85,0,0,1-4.72,5l4.83,6.43a.88.88,0,0,1,.18.55.9.9,0,0,1-1.66.48l-5.35-7.46H249Zm0-8.62h4.4a3.41,3.41,0,0,0-.08-6.8H249Z"/><path class="cls-1" d="M292.46,207.47v-3.82h-4.41a.82.82,0,0,1,0-1.63h5.33a.83.83,0,0,1,.81.81v4.62a1.3,1.3,0,0,1-.34.87,7.78,7.78,0,0,1-6.3,2.89c-5.11,0-8.22-2.74-8.22-9.22,0-6.24,3.11-9.25,8.22-9.25a7.23,7.23,0,0,1,5.93,2.79,1,1,0,0,1,.19.56.85.85,0,0,1-1.53.5,5.69,5.69,0,0,0-4.59-2.21c-4.06,0-6.37,2.45-6.37,7.61,0,5.48,2.31,7.59,6.37,7.59A6.08,6.08,0,0,0,292.46,207.47Z"/><path class="cls-1" d="M316.46,205.44V193.79a.9.9,0,0,1,1.79,0v11.65c0,2.09.76,4.09,4.4,4.09s4.37-2,4.37-4.09V193.79a.9.9,0,0,1,1.8,0v11.65c0,2.9-1.19,5.77-6.17,5.77S316.46,208.34,316.46,205.44Z"/><path class="cls-1" d="M353.4,210.16a.9.9,0,1,1-1.79,0V194a.89.89,0,0,1,.89-.9h5.25a4.92,4.92,0,0,1,5,5,4.85,4.85,0,0,1-4.72,5l4.83,6.43a.88.88,0,0,1,.18.55.9.9,0,0,1-1.66.48l-5.35-7.46H353.4Zm0-8.62h4.4a3.41,3.41,0,0,0-.08-6.8H353.4Z"/><path class="cls-1" d="M385.6,210.85a.9.9,0,0,1-.9-.9V194a.9.9,0,0,1,.9-.9h8.46a.82.82,0,0,1,.81.82.81.81,0,0,1-.81.81h-7.57v6.36h5.8a.82.82,0,0,1,.82.81.82.82,0,0,1-.82.82h-5.8v6.48h7.85a.82.82,0,0,1,0,1.64Z"/><path class="cls-1" d="M429.44,193.77v16.39a.89.89,0,0,1-.89.9.9.9,0,0,1-.74-.37l-9.28-14v13.5a.87.87,0,1,1-1.74,0V193.77a.87.87,0,0,1,1.58-.5l9.33,14V193.77a.87.87,0,0,1,1.74,0Z"/></svg>