<svg id="Capa_1" data-name="Capa 1" xmlns="http://www.w3.org/2000/svg" viewBox="0 0 600 300"><defs><style>.cls-1{fill:#1e1e1e;}</style></defs><title>Mesa de trabajo 25</title><path class="cls-1" d="M353.89,171.77a1.38,1.38,0,0,1-1-1.34v-50.7h-9.52v60.53h36.23v-8.45H354.22A1.35,1.35,0,0,1,353.89,171.77Zm-42.46-52H295.94v60.53h9.52V165.93h6c16.55,0,25.81-9.17,25.81-23.05S328.08,119.73,311.43,119.73Zm-.36,37.75h-4.23a1.32,1.32,0,0,1-.34,0,1.37,1.37,0,0,1-1-1.34V129.57a1.38,1.38,0,0,1,1-1.34,1.86,1.86,0,0,1,.34,0h4.23c11.57,0,16.38,5.52,16.38,14.69S322.74,157.48,311.07,157.48Zm129.39-29.29h16.62a1.75,1.75,0,0,1,.32,0,1.38,1.38,0,0,1,1.05,1.34v50.7H468v-50.7a1.38,1.38,0,0,1,1-1.33,1.32,1.32,0,0,1,.33-.05H486v-8.46H440.46Zm61.33-8.36A10.17,10.17,0,1,0,512,130,10,10,0,0,0,501.79,119.83Zm0,17.51c-4.12,0-7-3.14-7-7.34s2.87-7.35,7-7.35,7,3.15,7,7.35S505.89,137.34,501.79,137.34Zm-324.54-18.4C159.89,118.94,146,132.11,146,150s13.89,31.06,31.25,31.06,31.24-13.17,31.24-31.06S194.6,118.94,177.25,118.94Zm0,53.49c-12.56,0-21.37-9.61-21.37-22.43s8.81-22.43,21.37-22.43,21.36,9.61,21.36,22.43S189.8,172.43,177.25,172.43Zm-58.29,0c-12.2,0-21.1-9.35-21.1-22.43,0-12.82,8.73-22.43,20.74-22.43,8,0,13.18,2.85,17.17,8.28l7.3-5.17c-5.24-7.39-13-11.74-24.2-11.74C101.6,118.94,88,132.11,88,150s13.35,31.06,30.62,31.06c11.75,0,19.67-4.09,25.9-12.37l-7.38-5.07C132.57,169.5,126.79,172.43,119,172.43Zm290.31-53.49C391.91,118.94,378,132.11,378,150s13.88,31.06,31.25,31.06,31.24-13.17,31.24-31.06S426.62,118.94,409.27,118.94Zm0,53.49c-12.56,0-21.37-9.61-21.37-22.43s8.81-22.43,21.37-22.43,21.36,9.61,21.36,22.43S421.81,172.43,409.27,172.43ZM252.32,156.89a1.37,1.37,0,0,1-1.22.75,1.55,1.55,0,0,1-.31,0,1.37,1.37,0,0,1-1.07-1.32V119.65H234.17l-30.64,60.53h10.09l24.31-46.11a1.37,1.37,0,0,1,1.23-.74,1.87,1.87,0,0,1,.32,0,1.37,1.37,0,0,1,1,1.34v45.48h10.1l24.31-46.12a1.36,1.36,0,0,1,1.21-.73,1.19,1.19,0,0,1,.33,0,1.37,1.37,0,0,1,1,1.33v45.48h9.2V119.66H271.17Zm251.87-24.57a3.89,3.89,0,0,0,1.84-3.51,4.08,4.08,0,0,0-1.24-3.1,5,5,0,0,0-3.46-1.16h-3v10.9h2.37V133h.61a4.89,4.89,0,0,0,.54,0l1.71,2.44h2.85l-.44-.62Zm-1.09-2a2.58,2.58,0,0,1-1.84.55h-.54v-4.15h.54a2.65,2.65,0,0,1,1.84.54,2.51,2.51,0,0,1,0,3.06Z"/></svg>