<svg id="Capa_1" data-name="Capa 1" xmlns="http://www.w3.org/2000/svg" viewBox="0 0 600 300"><defs><style>.cls-1{fill:#1e1e1e;}</style></defs><title>Mesa de trabajo 10</title><path class="cls-1" d="M167.26,165.75a16.67,16.67,0,0,1-5,12.11,16.12,16.12,0,0,1-12.11,5h-2.42a16.9,16.9,0,0,1-12.11-5,16.67,16.67,0,0,1-5-12.11v-31.5a16.9,16.9,0,0,1,5-12.11,17.4,17.4,0,0,1,12.11-4.84h2.42a16.94,16.94,0,0,1,12.11,5,16.45,16.45,0,0,1,5,12.12ZM156,164V136.39a9.9,9.9,0,0,0-2-6.13,5.8,5.8,0,0,0-4.85-2.42,6.15,6.15,0,0,0-4.84,2.57,9,9,0,0,0-2.14,6V164a8.42,8.42,0,0,0,2.14,5.84,6,6,0,0,0,4.84,2.42,6.42,6.42,0,0,0,4.85-2.42A9.07,9.07,0,0,0,156,164Z"/><path class="cls-1" d="M209.73,179.71a2,2,0,0,1-2.28,2.28h-6.7a2.29,2.29,0,0,1-1.57-.71,2.59,2.59,0,0,1-.71-1.57v-21.8a2.33,2.33,0,0,0-.71-1.57,2.36,2.36,0,0,0-1.71-.71H187.5c-1.43,0-2.14.71-2.14,2.28v21.8a2.64,2.64,0,0,1-.71,1.57,1.82,1.82,0,0,1-1.57.71h-6.56a2,2,0,0,1-2.28-2.28V120.43a2,2,0,0,1,2.28-2.28h6.56a2,2,0,0,1,2.28,2.28V142.8a2,2,0,0,0,2.14,2.28h8.55a2,2,0,0,0,2.28-2.28V120.43a2.29,2.29,0,0,1,.71-1.57,2.33,2.33,0,0,1,1.57-.71h6.69a2,2,0,0,1,2.28,2.28v59.28Z"/><path class="cls-1" d="M254.76,179.85a1.89,1.89,0,0,1-2.14,2.14h-6.27c-1,0-1.71-.71-2.28-2l-15.25-33.92a.72.72,0,0,0-.71-.57c-.43,0-.57.29-.57.86v33.48c0,1.43-.71,2.14-2.28,2.14H218.7c-1.28,0-2-.71-2-2.14V120.29c0-1.43.71-2.14,2-2.14h6.56c1.14,0,2.14.71,2.71,2.28l14.67,32.78a.8.8,0,0,0,.86.57c.28,0,.43-.29.43-.86V120.43a2.29,2.29,0,0,1,.71-1.57,2.33,2.33,0,0,1,1.57-.71h6.27c1.42,0,2.13.71,2.13,2.28v59.42Z"/><path class="cls-1" d="M305.77,179.85a1.89,1.89,0,0,1-2.14,2.14H276.84c-1.28,0-2-.71-2-2.14V120.29c0-1.43.71-2.14,2-2.14H284a1.89,1.89,0,0,1,2.14,2.14v49.45a1.88,1.88,0,0,0,2.13,2.13h15.39c1.43,0,2.14.72,2.14,2.28Z"/><path class="cls-1" d="M321.87,180a1.95,1.95,0,0,1-2,2H314a1.83,1.83,0,0,1-1.43-.57A1.81,1.81,0,0,1,312,180v-6.56a1.76,1.76,0,0,1,2-1.85h5.84c1.28,0,2,.57,2,1.85Z"/><path class="cls-1" d="M378.3,165a18,18,0,0,1-17.81,17.82h-.71a16.77,16.77,0,0,1-12.54-5.28A17,17,0,0,1,342,165V135.11a16.8,16.8,0,0,1,5.27-12.54,17.65,17.65,0,0,1,12.68-5.27h.71a16.8,16.8,0,0,1,12.54,5.27,17.2,17.2,0,0,1,5.13,12.54v2.71a2,2,0,0,1-.71,1.42A2.29,2.29,0,0,1,376,140h-6.69a2.47,2.47,0,0,1-2.28-2.13v-1a10.17,10.17,0,0,0-1.86-6.27,5.72,5.72,0,0,0-4.7-2.57,6.24,6.24,0,0,0-5,2.57,9.58,9.58,0,0,0-2.13,6.27v26.93A9.31,9.31,0,0,0,355.5,170a6.24,6.24,0,0,0,5,2.57,6,6,0,0,0,4.85-2.57,9.48,9.48,0,0,0,2-6.27v-2.14a2,2,0,0,1,2.14-2.28h6.7a2,2,0,0,1,2.28,2.28V165Z"/><path class="cls-1" d="M422.19,165.75a16.7,16.7,0,0,1-5,12.11,16.14,16.14,0,0,1-12.12,5h-2.42a16.9,16.9,0,0,1-12.11-5,16.67,16.67,0,0,1-5-12.11v-31.5a16.9,16.9,0,0,1,5-12.11,16.67,16.67,0,0,1,12.11-5h2.42a16.91,16.91,0,0,1,12.12,5,16.47,16.47,0,0,1,5,12.11ZM410.79,164V136.39a9.9,9.9,0,0,0-2-6.13,5.8,5.8,0,0,0-4.85-2.42,6.15,6.15,0,0,0-4.84,2.57,9,9,0,0,0-2.14,6V164a8.42,8.42,0,0,0,2.14,5.84A6,6,0,0,0,404,172.3a6.42,6.42,0,0,0,4.85-2.42A9.07,9.07,0,0,0,410.79,164Z"/><path class="cls-1" d="M465.94,165.75a16.67,16.67,0,0,1-5,12.11,16.12,16.12,0,0,1-12.11,5h-2.42a16.9,16.9,0,0,1-12.11-5,16.67,16.67,0,0,1-5-12.11v-31.5a16.9,16.9,0,0,1,5-12.11,16.66,16.66,0,0,1,12.11-5h2.42a16.9,16.9,0,0,1,12.11,5,16.44,16.44,0,0,1,5,12.11ZM454.54,164V136.39a9.9,9.9,0,0,0-2-6.13,5.83,5.83,0,0,0-4.85-2.42,6.15,6.15,0,0,0-4.84,2.57,9,9,0,0,0-2.14,6V164a8.42,8.42,0,0,0,2.14,5.84,6,6,0,0,0,4.84,2.42,6.44,6.44,0,0,0,4.85-2.42A8.36,8.36,0,0,0,454.54,164Z"/><path class="cls-1" d="M511.54,179.85c0,.15.14.43.14.57a1.42,1.42,0,0,1-1.56,1.57H502c-.85,0-1.56-.71-2.13-2.14l-9.69-25.08c-.29-.57-.43-.85-.86-.85s-.57.28-.85.85L484.75,161a2.82,2.82,0,0,0-.43,1.43v17.38a1.89,1.89,0,0,1-2.13,2.14h-7.13c-1.28,0-2-.71-2-2.14V120.29c0-1.43.71-2.14,2-2.14h7.13a1.89,1.89,0,0,1,2.13,2.14v19.24c0,.85.15,1.14.57,1.14s.72-.43,1.14-1.14l11-19.24c.85-1.43,1.56-2.14,2.28-2.14h8c1.14,0,1.71.57,1.71,1.57,0,.28-.15.43-.29.71l-12.25,20.95a1.32,1.32,0,0,0,0,1.28Z"/><path class="cls-1" d="M123.51,120.15a2.59,2.59,0,0,0-.71-1.57,2.29,2.29,0,0,0-1.57-.71h-6.84a2,2,0,0,0-2,2.28v36.9h0v6.13a10.25,10.25,0,0,1-2,6.27,6,6,0,0,1-4.84,2.57,5.72,5.72,0,0,1-4.7-2.57,10.25,10.25,0,0,1-2-6.27v-2c0-1.43-.71-2.28-2-2.28H90.45c-1.42,0-2.13.71-2.13,2.28v3.13a17.92,17.92,0,0,0,5,12.54,16.63,16.63,0,0,0,12.12,5.27h.71a16.4,16.4,0,0,0,12.25-5.27,17.2,17.2,0,0,0,5.13-12.54v-7.27h0v-36.9Z"/></svg>