<?xml version="1.0" encoding="utf-8"?>
<!-- Generator: Adobe Illustrator 23.0.1, SVG Export Plug-In . SVG Version: 6.00 Build 0)  -->
<svg version="1.1" id="Capa_1" xmlns="http://www.w3.org/2000/svg" xmlns:xlink="http://www.w3.org/1999/xlink" x="0px" y="0px"
	 viewBox="0 0 600 300" style="enable-background:new 0 0 600 300;" xml:space="preserve">
<style type="text/css">
	.st0{fill:#181818;}
</style>
<g>
	<path class="st0" d="M236.9,192.7l-0.3-85.5c0-8.6,6.7-15.6,15.3-15.6h1.7c8.6,0,15.6,7,15.6,15.6l0.3,85.5c0,8.6-7,15.6-15.6,15.6
		h-1.8C243.5,208.3,236.9,201.3,236.9,192.7z"/>
	<path class="st0" d="M433.3,101.8l34.6,56.2c7.5,12.2,9.2,15.3,9.2,24.3c0,14.1-12.8,24.9-24.1,24.9h-46.7
		c-8.5,0-15.4-5.9-15.4-14.4v-1c0-8.5,6.9-15.4,15.4-15.4l28.6,0c1.8,0,2.9-0.2,3.4-1.4c0.5-1.2,0.4-1.9-0.5-3.3l-20.4-32.7
		c-0.3-0.5-0.7-1.3-1.3-1.3c-0.6,0-1.1,0.8-1.4,1.3l-31.1,53.4c-4.9,8.5-10.6,14.7-19,14.7h-59.9c-11.3,0-22.8-11.2-22.8-22.8v-77.3
		c0-8.5,6.9-15.4,15.4-15.4h2c8.5,0,15.4,6.9,15.4,15.4v63.1c0,2.3,1.7,4.2,4.2,4.2h29.7c5.2,0,8.4-1.9,11.1-6.4l40-66.3
		c3.8-6.3,9.9-9.7,17.1-9.7C423.7,92.1,429.2,95.3,433.3,101.8z"/>
	<path class="st0" d="M159.9,167.2c-2.3,0-4.2,1.9-4.2,4.2l0,21.5c0,8.5-6.9,15.4-15.4,15.4h-2c-8.5,0-15.4-6.9-15.4-15.4l0-39.1
		c0-9.9,7.6-18.3,18.3-18.3h62.5c8.5,0,15.4,6.9,15.4,15.4v1c0,8.5-6.9,15.4-15.4,15.4L159.9,167.2z"/>
	<path class="st0" d="M138.6,93.9h72.8c8.6,0,15.6,6.7,15.6,15.3v1c0,8.6-7,15.6-15.6,15.6h-72.8c-8.6,0-15.6-7-15.6-15.6v-1.1
		C123,100.5,130,93.9,138.6,93.9z"/>
</g>
</svg>
