<svg id="Capa_1" data-name="Capa 1" xmlns="http://www.w3.org/2000/svg" viewBox="0 0 600 300"><defs><style>.cls-1{fill:#1e1e1e;}</style></defs><title>Mesa de trabajo 23</title><path class="cls-1" d="M343.75,198.05c.66-1.28.67-5-.51-6.07a2,2,0,0,0-2.75.23,7.62,7.62,0,0,0-.61,3.25c-.16,2.84.64,5.56,1,8.28a48.5,48.5,0,0,1,.24,9.35c-.09,1.79-1.51,4-3.64,3.84-2.62-.27-2.38-4.32-4.37-5.46-5.83,3.5.66,9.39,5.16,9.2,2.81-.14,4.6-2.11,5.36-4.61A22.73,22.73,0,0,0,345,207.5a62.66,62.66,0,0,0-1.29-9.45ZM215.33,196.8a7.06,7.06,0,0,0-4.65-3.18,1.08,1.08,0,0,0-.21-.43,1.46,1.46,0,0,0-2.08-.36,10.56,10.56,0,0,0-4,6.85,5.42,5.42,0,0,0,1.32,4.25,6.72,6.72,0,0,0,9,.66,5,5,0,0,0,1.84-4,7.29,7.29,0,0,0-1.21-3.84ZM199,186.65c1.64,1.06,2.36,6.95,2.38,8.49.06,4.56-5.6,5-3.77,6.1,1.36.83,5.55,4.74,5.9,6.65.21,1.16-.35,2.83-1.82,2.43-2.65-.73-5.3-5.22-7.36-7.62-1-1.17-2.52-1.81-2.58-1.33a44.41,44.41,0,0,1-.19,4.46c-.3,2.73.93,4.1-.73,6.38-2,2.74-3.93-2.55-3.66-4.07,1.22-6.91,1.1-11.53,1.38-18.1s7.39-5.41,10.45-3.39Zm-5.91,2.89c-1.21,1-.62,3.09-1.13,4.8-.3,1-.48,3.81,1,3.88,2.73.11,5.11-.41,6.45-2.87s-.78-6.91-3.78-7a4,4,0,0,0-2.55,1.24Zm60,13.16a2.53,2.53,0,0,1-2.94-1.36c-.14-.27-.31-.61-.44-.94a2.86,2.86,0,0,0-.81-2,38.05,38.05,0,0,1-1.25-4.2l-.27-1.61c0-.29-.07-.58-.11-.87a3,3,0,0,0,.47-1.59h0a2.35,2.35,0,0,0-2.11-2.54h-1.12a6.27,6.27,0,0,0-3.48,1.08,12.42,12.42,0,0,0-3.7,3.93,2.85,2.85,0,0,0-.21,1.08c0,.06,0,.14,0,.19a20.59,20.59,0,0,0-.77,2L236,197l-.18.41a11.9,11.9,0,0,0-1.1,3.44c-.53,4,.9,7.33,3.7,8.63,1.57.7,5.15,1.55,7.54-.33a7,7,0,0,0,2.15-3.06,5.86,5.86,0,0,0,6.38,1.44,2.74,2.74,0,0,0,1.27-3.27,2,2,0,0,0-2.68-1.56Zm-9.37,2.15c-.66.5-2.49.43-3.81-.17a2.17,2.17,0,0,1-1.09-2.19,5.46,5.46,0,0,1,.07-.84,6.73,6.73,0,0,1,.63-1.78l.2-.47s.57-1.6.57-1.6a7.88,7.88,0,0,1,.66-1.65,2.57,2.57,0,0,0,.6-1.64,11.52,11.52,0,0,1,1.59-1.36s.06,0,.07,0a2.89,2.89,0,0,1,0,.29l.37,2.33a47.51,47.51,0,0,0,1.56,5.11c-.14.46-.26.93-.35,1.36-.35,1.4-.56,2.21-1.11,2.65Zm-20.12-2.53c1.72,1.15,5.72.93,7.27-.34s1.88-7.18-1.08-10.8c-1.82-2.23-3.22-2.78-6.25-1.82-3.27,1-4.19,2.33-4.36,5.14-.33,6.26.88,11.9,1.29,18.32.1,1.61.37,6.57,3.78,4.68,2.34-1.32.2-5.58-.06-7.36-.4-2.67.21-5.52-.59-7.82Zm-1.2-8.09c.2-2,3.27-3,5-1.57,1,.85,1.63,4.1,1.49,5.33-.23,2-1.91,3.47-4,1.85a8,8,0,0,1-2.43-5.61Zm-9.54,8a3.84,3.84,0,0,1-5-.38,2,2,0,0,1-.54-1.5,1.94,1.94,0,0,1,0-.33,6.69,6.69,0,0,1,1.31-3.07,1,1,0,0,0,.28-.07c1.52-.86,3.17.53,3.91,1.68.15.25,1.49,2.43,0,3.67ZM272,204a6.24,6.24,0,0,0,5.86,0c1.29-1,1.8-5.72-.44-8.74-1.39-1.88-2.49-2.38-5-1.72-2.68.71-3.47,1.73-3.7,4-.53,5,.23,9.62.32,14.81,0,1.31.05,5.3,2.86,3.91,1.94-1,.38-4.48.24-5.93-.21-2.16.38-4.43-.17-6.33Zm47.19,5a2,2,0,0,1-2.31-1.2c-.12-.23-.22-.5-.33-.77a2.23,2.23,0,0,0-.58-1.6,34.87,34.87,0,0,1-.85-3.42l-.15-1.3c0-.23,0-.47-.06-.71a2.35,2.35,0,0,0,.43-1.27,1.92,1.92,0,0,0-1.6-2.12h-.91a4.9,4.9,0,0,0-2.82.75,9.73,9.73,0,0,0-3.11,3,2.15,2.15,0,0,0-.22.87c0,.05,0,.1,0,.15a13.33,13.33,0,0,0-.67,1.6l-.34.85-.16.32a9.41,9.41,0,0,0-1,2.71c-.57,3.23.45,5.92,2.68,7.07,1.23.63,4.08,1.44,6.07,0a5.65,5.65,0,0,0,1.82-2.38,4.73,4.73,0,0,0,5.09,1.38,2.25,2.25,0,0,0,1.14-2.58,1.67,1.67,0,0,0-2.12-1.35Zm-7.62,1.39c-.52.39-2,.26-3-.27a1.71,1.71,0,0,1-.81-1.79c0-.21,0-.43.08-.68a6.06,6.06,0,0,1,.58-1.42l.18-.36.51-1.26a6.32,6.32,0,0,1,.6-1.31,2.3,2.3,0,0,0,.53-1.3,11.61,11.61,0,0,1,1.33-1l.05,0c0,.08,0,.16,0,.24l.23,1.87a39.39,39.39,0,0,0,1.06,4.17c-.13.37-.23.74-.34,1.09-.31,1.11-.52,1.75-1,2.08Zm-17.07.4v-.63a40.74,40.74,0,0,1,1.16-6.94V198l.13-1.58a1.09,1.09,0,0,1,.59-.81,1.05,1.05,0,0,1,.81-.22,1,1,0,0,1,.89,1.1L298,198v.27l.09-.06a4.07,4.07,0,0,1,.74-.45,2.77,2.77,0,0,1,2-.31c1.72.34,3,2.08,3.2,4.41a1.16,1.16,0,0,1-.22.78,1.08,1.08,0,0,1-.72.4l-.27.08a1.06,1.06,0,0,1-1.14-1c-.15-1.55-.89-2.39-1.52-2.52l-.4,0a2.35,2.35,0,0,0-.8.91,16.4,16.4,0,0,0-.95,2.83h0v.08l-.16,1.72-.46,2.44a21,21,0,0,0-.55,3V211a1,1,0,0,1-1,1h-.22a1,1,0,0,1-1.07-1v-.21Zm-3.61-2.35a1.28,1.28,0,0,1,1.65,1.06,1.76,1.76,0,0,1-.9,2.05,3.76,3.76,0,0,1-4-1.09,4.42,4.42,0,0,1-1.45,1.88c-1.58,1.15-3.84.5-4.81,0-1.76-.91-2.58-3.06-2.12-5.62a8.5,8.5,0,0,1,.79-2.15l.13-.26.27-.68a10,10,0,0,1,.54-1.25s0-.08,0-.11a1.72,1.72,0,0,1,.17-.7,7.6,7.6,0,0,1,2.46-2.39,3.9,3.9,0,0,1,2.25-.6H286l.48,0h.09a1.48,1.48,0,0,1,1.27,1.68,1.78,1.78,0,0,1-.33,1c0,.19,0,.38,0,.55l.13,1.06a26.63,26.63,0,0,0,.67,2.7,1.7,1.7,0,0,1,.45,1.28q.15.31.27.6a1.62,1.62,0,0,0,1.85,1Zm-6.07,1.09c.39-.25.54-.76.79-1.64a8.87,8.87,0,0,1,.28-.88,25.26,25.26,0,0,1-.85-3.29l-.18-1.5a1,1,0,0,1,0-.17h-.05a8.73,8.73,0,0,0-1,.82,1.73,1.73,0,0,1-.43,1,5,5,0,0,0-.47,1.05s-.41,1-.41,1l-.15.28a4.8,4.8,0,0,0-.45,1.13,3.58,3.58,0,0,0-.06.53,1.33,1.33,0,0,0,.64,1.42,2.87,2.87,0,0,0,2.4.21Zm-13.47-12.07c.23-1.6,2.75-2.26,4.07-1.07.77.72,1.13,3.37,1,4.35-.25,1.63-1.67,2.73-3.31,1.33a6.37,6.37,0,0,1-1.73-4.61Zm130.18,12.25v-.12l0-.64a50.41,50.41,0,0,1,1-8.7l-.14-3-.14-3.44.08-2a1.33,1.33,0,0,1,.69-1,1.28,1.28,0,0,1,1-.34,1.3,1.3,0,0,1,1.16,1.32l-.06,1.85,0,.33.09-.05a4.37,4.37,0,0,1,.92-.62,3.46,3.46,0,0,1,2.43-.49c2.15.33,3.79,2.42,4.23,5.3a1.49,1.49,0,0,1-.25,1,1.23,1.23,0,0,1-.86.52,3.09,3.09,0,0,1-.34.1,1.28,1.28,0,0,1-1.45-1.1c-.3-1.93-1.25-2.93-2-3.06l-.5,0a2.77,2.77,0,0,0-.94,1.16,19.87,19.87,0,0,0-1,3.58v.1l-.1,2.18-.47,3a27.06,27.06,0,0,0-.49,3.78l0,.42a1.33,1.33,0,0,1-1.17,1.33H403a1.3,1.3,0,0,1-1.41-1.19v-.27Zm-4.71-4.19a2.49,2.49,0,0,1-2.93-1.37,9.85,9.85,0,0,1-.46-.92,2.76,2.76,0,0,0-.8-2,38,38,0,0,1-1.26-4.2l-.26-1.61c0-.29-.06-.58-.11-.88a2.8,2.8,0,0,0,.46-1.58v0a2.32,2.32,0,0,0-2.09-2.53h-1.13a6.23,6.23,0,0,0-3.48,1.09,12.41,12.41,0,0,0-3.69,3.93,2.65,2.65,0,0,0-.21,1.09c0,.06,0,.11,0,.18a15.33,15.33,0,0,0-.76,2l-.38,1.09s-.18.39-.18.39a12.89,12.89,0,0,0-1.1,3.44c-.53,4,.89,7.34,3.72,8.62,1.56.72,5.15,1.57,7.54-.32a7,7,0,0,0,2.13-3.06,5.82,5.82,0,0,0,6.37,1.44,2.72,2.72,0,0,0,1.27-3.26,2,2,0,0,0-2.67-1.56Zm-9.38,2.15c-.66.51-2.49.42-3.8-.18a2.11,2.11,0,0,1-1.08-2.19,4.85,4.85,0,0,1,0-.83,6.83,6.83,0,0,1,.63-1.8l.21-.45s.57-1.61.57-1.61a7.6,7.6,0,0,1,.66-1.66,2.79,2.79,0,0,0,.6-1.63,11.73,11.73,0,0,1,1.6-1.36l.05,0c0,.11,0,.2,0,.29l.39,2.32a46,46,0,0,0,1.55,5.1c-.14.48-.25.95-.36,1.4-.34,1.39-.57,2.19-1.11,2.64ZM362.59,210l-.43-.33c-.91-.65-1.85-1.33-1.43-6.65a14.62,14.62,0,0,1,4.36-9.09,5.39,5.39,0,0,1,2.56-1.68,3.87,3.87,0,0,1,1.75-.43l.26.08c.69.17,1.35.41,1.19,1.17a1.22,1.22,0,0,1-.52,1.12l-.06,0-.15.16a1,1,0,0,1-.56.22,3.63,3.63,0,0,0-1.76,1L366.56,197c-2.18,2.76-2.41,4-2.43,4.24a9.48,9.48,0,0,0-.54,5c.06.12,1.08,2.57,3.17,1.89l1.52-.32.78,0,.37,0c.29-.21.87-.88,1.22-2.91l0-.06h-.05c-.2-.12-1-.38-4-.37h0a1.71,1.71,0,0,1,.21-2.16l.19-.14c1.13-1,9-1.16,9.32-1.17h0a.68.68,0,0,1,.26.44v.15a2.78,2.78,0,0,1-.89,1.64l-.22.06s-.9.37-.9.37l-.7.17h-.06v.32a6.61,6.61,0,0,1-.27,2.5s-.18.43-.18.43a4.45,4.45,0,0,1-3.22,3l-.67.16c-2.54.56-5.88.62-6.87-.27Zm-13.52-6.59c.64-1.59,1.92-5.07-.47-5.91-2.62-.93-2.05,3.39-2,5.07,0,2,0,5.66,1.15,7.19,1.81,2.47,5.55-.5,4.79,3.4a19.46,19.46,0,0,1,4,0c-1.62-3.15,1.12-8.23,1.42-11.64.14-1.41.81-5.12-.6-6.08-2.84-1.93-2.65,2-2.73,3.59-.11,2-.53,10-3.34,10-3.82,0-1.89-4.23-2.24-5.59Zm-4.62-18.69a1.25,1.25,0,0,1,.2,1.59,4,4,0,0,1-1.2,1.43,3,3,0,0,1-1.7.64,1.42,1.42,0,0,1-1.38-1.11,2.37,2.37,0,0,1,.8-2.37,3.35,3.35,0,0,1,.93-.66,2.51,2.51,0,0,1,1-.28,1.42,1.42,0,0,1,1.33.76Z"/><path class="cls-1" d="M184.57,125.92h0c-1.35,0-32.84.17-37.4,4.32l-.77.54c-1.46,1.15-1.48,3.52-1.17,5.49.74,4.64,2.33,3.29,7.94,4.3,1.94.36,3.53.62,4.76.84,3.84.64,4-.07,3.32,3.12a29.34,29.34,0,0,1-2.88,8.36c-1.88,3.29-4.25,2.49-7.77,3-4.37.57-9,2.31-12.78-.84a17.44,17.44,0,0,1-4.61-7,44.5,44.5,0,0,1,2.57-21.86c.11-1.33,1.17-6.55,10.11-18.44,0,0,1.78-2.15,3.26-3.9a21.33,21.33,0,0,1,5.25-5A10.73,10.73,0,0,1,158,97.41a4.31,4.31,0,0,0,2.32-1l.58-.62.26-.19a5.63,5.63,0,0,0,2.15-4.85c.74-3.38-1.91-4.45-4.69-5.27l-1-.29c-1.41-.52-4.63.55-7.05,1.66-2.22.07-6.29,2.87-10.37,7.12A65.21,65.21,0,0,0,122,133.42c-2.12,23.24,1.55,26.3,5.14,29.26,0,0,1.69,1.49,1.7,1.52,3.89,3.94,17.31,4,27.54,1.76l2.72-.61c9-2.3,11.76-9.55,13.12-13,0,0,.74-1.78.77-1.84.62-1,1.07-4.12,1.24-8.82.12-3-.76-3.19,2-4.13,2.39-.83,5.74-2.28,6.91-3.72,1.81-2.23,2.51-3.66,2.54-5.33l0-.64a2.73,2.73,0,0,0-1-1.9Z"/><path class="cls-1" d="M266.2,114.11l0-.77c0-1.35,0-5.93-1.78-7.23s-7.81-.4-11.17.12c-1.32.67-2.74,1.43-3.22,2.72-.14.26.38,2.23,1.91,8.08,3.76,14.49-2.87,43.93-2.94,44.08.11.3,2.14,3.92,3.34,6,.07.06,4.62,4.81,8.22,4l1.53,0a3.32,3.32,0,0,0,2.07-1.63c2.83-4.79,1.92-15.26,2.06-21.05.3-14.77,0-32.37-.06-34.36Z"/><path class="cls-1" d="M222.4,91.18a14.59,14.59,0,0,0-10.93,2.18,20.56,20.56,0,0,0-4.05,2.88l-.51.29,0-1.59.53-9a6.23,6.23,0,0,0-5.11-6.56,5.45,5.45,0,0,0-4.48,1.54,6.42,6.42,0,0,0-3.13,5l-.58,9.54.35,16.82s.32,14.69.32,14.77c-3.1,15.06-5.34,32-5.54,42.25l0,3.21v.13q4.14,7,12.73.29l0-1c.1-4.54,1.4-11.9,2.54-18.38l2.37-14.79.66-10.55,0-.51,0,0c1.21-5.75,3-13.43,4.84-17.29a14.42,14.42,0,0,1,4.35-5.6l2.21-.18c3.48.69,7.71,5.71,8.76,15.09.4,3.49,3.29,6,6.42,5.54,0,0,1.43-.44,1.54-.46a5.81,5.81,0,0,0,3.85-2.47,7,7,0,0,0,1.17-4.78c-1.6-14.11-8.79-24.46-18.31-26.32Z"/><path class="cls-1" d="M260.2,95.15a2.75,2.75,0,0,0,2.68-1.87,13.51,13.51,0,0,0,1.32-6v-.42c0-1.55-.39-2.33-1.39-2.69l-2.4-.9s-.71-.19-.84-.25l-1.67-.34a4.32,4.32,0,0,0-3.22,2.56,1.92,1.92,0,0,1-.3.06,3,3,0,0,0-1.49,2.67l.27,1.43c1.23,2.7,2.47,5.48,7,5.79Z"/><path class="cls-1" d="M355.62,105.77a3.94,3.94,0,0,0,3.81-2.67,19.23,19.23,0,0,0,1.86-8.59c0-.2,0-.39,0-.61,0-2.2-.55-3.32-2-3.85l-3.44-1.24s-1-.28-1.2-.35L352.34,88a6.21,6.21,0,0,0-4.6,3.63l-.41.08a4.39,4.39,0,0,0-2.13,3.81l.4,2c1.74,3.84,3.5,7.81,10,8.24Z"/><path class="cls-1" d="M393.54,90.48s-.19.1-.44.19l-2.58.61a13.41,13.41,0,0,0-6.67,5l-.24.34-.26-.33a4.44,4.44,0,0,0-5.49-1.39l-.5.36h-.11a4.29,4.29,0,0,0-2.25.39,5.37,5.37,0,0,0-2.87,4.75l.41,2.22c4.58,11.77,5.56,25,6.17,37.55l-.15,2.11-.59,9.42c-.2,10.29.86,18.32,3.27,24.91q7.58,7.08,13.31.31l-.06-.64c-2.05-9.87-2.53-20.24-3-31.25,0,0-.27-5.14-.27-5.2l.35-5.45.79-10.24,0-7.3,0-5.23c.11-5.37.69-9,3.33-10.58,4.71.3,11.19,5.52,12.64,10.14,1.89,6.16.17,16.89-1.2,25.5L406,144.4l-1,7.7c-1.17,8.22-2.37,16.69-2,25q6.23,7.06,12.73.3a103.23,103.23,0,0,1,1.23-19.16c.73-5.4,1.43-10.75,2.23-16.13l.59-3.95c1.58-9.92,3.53-22.25.84-31.07-3.23-10.46-16.62-20.4-27-16.64Z"/><path class="cls-1" d="M330.67,132.64a31.3,31.3,0,0,0-7.92-3.28c-5.48-1.45-11-1.52-16-1.6l-7.29-.27a6.73,6.73,0,0,1-4.84-2.82,13.78,13.78,0,0,1-1.91-11.61c1-4,6.66-9.74,10.59-11.68,2.6-.42,5.72.18,9.08.82a48.36,48.36,0,0,0,8.95,1.14,6.43,6.43,0,0,0,3-.73,5.65,5.65,0,0,0,5.34-5.5,5.34,5.34,0,0,0-1.75-3.93,6.15,6.15,0,0,0-4.21-1.65,38.68,38.68,0,0,1-6.74-.92c-5.27-1-11.82-2.28-18.33.5l-2.65,1c-6.52,3.06-14.8,11.37-16.76,18.88A24.06,24.06,0,0,0,283,131.53a19.2,19.2,0,0,0,7.66,6c4.36,1.85,9.19,1.55,13.83,1.73,6.45.08,12.54.16,17.61,3.12,2.27,1.33,2.79,2.58,3,3.52.61,3.06-1.66,8.07-6.25,13.78-4.9,6.07-9.14,7.36-15.76,7.69-3.45.08-6-.12-8.41-1.33-3.8-1.95-12.48-12.27-16.63-11.55l-1.92.2a6,6,0,0,0-4.11,2.55c-1.08,1.65-.6,3.91.2,5.66,3,6.5,14.62,12.82,14.73,12.89,4.76,2.46,9.46,2.74,13.44,2.72h3.53c10.67-.3,18.87-2.45,26.76-12.27,6.93-8.59,9.79-16.21,8.5-22.64-.9-4.47-3.83-8.26-8.44-11Z"/><path class="cls-1" d="M362.9,146c0-.07.07-26.67.07-26.67a6.73,6.73,0,0,0-1.69-4.58,5.46,5.46,0,0,0-4.08-1.91l-2.37.59h-.31c-3.17,0-5.74,2.87-5.77,6.39l-.07,26.46s-.66,8.09-.66,8.14c-.78,7-1.7,15,.7,21.5q6.79,5.91,13.86.33a43,43,0,0,0,2.12-12.73,27.83,27.83,0,0,0-2.21-12.35s.41-5.14.41-5.17Z"/><path class="cls-1" d="M474,121.38c-4.25-7.46-11.2-13.18-18.85-14.65a6.67,6.67,0,0,0-.81-1.94,5.75,5.75,0,0,0-8.52-1.78c-7.26,5.57-15.7,17.37-17.09,30.13-.75,7.32,1,13.89,5.06,18.94,9.16,11.37,26.07,13.13,36.94,3.86a23,23,0,0,0,7.92-17.44A33.54,33.54,0,0,0,474,121.38Zm-10.7,23.71c-5.69,4.84-15.6,3.81-20.4-2.15a9.88,9.88,0,0,1-2.09-6.72c0-.48,0-1,.1-1.47A28.9,28.9,0,0,1,445.39,123a6.89,6.89,0,0,1,5.9-3.17c5.11-.26,10,4.72,12.37,8.92.62,1.12,6,11-.36,16.36Z"/></svg>