<svg id="Capa_1" data-name="Capa 1" xmlns="http://www.w3.org/2000/svg" viewBox="0 0 600 300"><defs><style>.cls-1{fill:#1e1e1e;}</style></defs><title>Mesa de trabajo 26</title><path class="cls-1" d="M494.91,150a32.43,32.43,0,0,1-2.42,13.63,21.79,21.79,0,0,1-11.34,11.74,26.32,26.32,0,0,1-9.93,1.93,29.32,29.32,0,0,1-10.64-1.49c-5.38-1.91-9.11-5.69-11.75-10.61a29,29,0,0,1-3.13-12,40.2,40.2,0,0,1,1.19-13.55A23,23,0,0,1,457,125.92a21,21,0,0,1,9-2.92,32.09,32.09,0,0,1,11.8.59c7.67,2,12.54,7,15.29,14.21a31,31,0,0,1,1.83,9.86C494.94,148.43,494.91,149.2,494.91,150Zm-10.72.78a27.78,27.78,0,0,0-1.46-10c-2.2-5.94-7.06-9.18-13.24-8.84a12.44,12.44,0,0,0-11,7.22,21.34,21.34,0,0,0-2.14,9,28.63,28.63,0,0,0,1.12,10.29c2.28,7.06,8.13,10.68,15.42,9.46,4.5-.75,7.5-3.49,9.37-7.54A23.54,23.54,0,0,0,484.19,150.75Z"/><path class="cls-1" d="M214.79,150a34.64,34.64,0,0,1-2.57,13.69,22.08,22.08,0,0,1-10.3,11.21,23.92,23.92,0,0,1-9.66,2.34,29,29,0,0,1-12.88-1.8,21.62,21.62,0,0,1-11.2-11,29.58,29.58,0,0,1-2.75-11.59c-.3-5.73.06-11.4,2.52-16.69,3.45-7.43,9.17-12,17.42-13a32,32,0,0,1,13.32.83c5.9,1.75,10,5.65,12.88,11a27.16,27.16,0,0,1,2.91,10.44C214.63,146.86,214.69,148.42,214.79,150Zm-10.88,0c0-.4,0-.79,0-1.19a25.18,25.18,0,0,0-1.14-7.25c-1.7-5.25-5.61-9.25-11.71-9.66a12.84,12.84,0,0,0-12.78,7.16,20.35,20.35,0,0,0-2,7.33,30.79,30.79,0,0,0,.71,11.11,14.44,14.44,0,0,0,5.07,8,13.13,13.13,0,0,0,11.44,2.18c4.27-1,7-3.8,8.71-7.7A24.48,24.48,0,0,0,203.91,150Z"/><path class="cls-1" d="M231.14,159.94h10.24c.18.77.33,1.52.52,2.26a7.24,7.24,0,0,0,5.24,5.39,19.55,19.55,0,0,0,12.17-.26,5.7,5.7,0,0,0,4-4.52,4.64,4.64,0,0,0-2.52-5.37,25.27,25.27,0,0,0-6.44-2.14A112,112,0,0,1,242,152.25a24.49,24.49,0,0,1-4.41-2,10.86,10.86,0,0,1-5.18-7.38,16.28,16.28,0,0,1,.88-10.42,14.66,14.66,0,0,1,8.65-8,27.55,27.55,0,0,1,19.55.08,16.15,16.15,0,0,1,8.63,7.06,17.13,17.13,0,0,1,2.09,8H261.88c-.1-.57-.17-1.17-.31-1.74a6.74,6.74,0,0,0-3.81-4.76,14.93,14.93,0,0,0-12.24-.22,5.32,5.32,0,0,0-3.56,5,4.4,4.4,0,0,0,2.87,4.47,27.74,27.74,0,0,0,4.16,1.37c4.22,1.06,8.46,2,12.68,3.07a22.31,22.31,0,0,1,6.2,2.46,12,12,0,0,1,5.9,9.7,15.27,15.27,0,0,1-1.16,7.93,16.21,16.21,0,0,1-9.28,8.54,26.88,26.88,0,0,1-9.09,1.67,31.5,31.5,0,0,1-11.76-1.58,16.61,16.61,0,0,1-9.55-7.77A16,16,0,0,1,231.14,159.94Z"/><path class="cls-1" d="M401.14,153.5c-1.27,1.22-2.45,2.49-3.77,3.59a4.13,4.13,0,0,0-1.52,3.65c.1,4.77,0,9.54,0,14.31v.75H385.33V124.34h10.55v21l.12.06,1.79-1.89q8.76-9.35,17.52-18.7a1.39,1.39,0,0,1,1.11-.5c4.18,0,8.37,0,12.56,0h.72l-21.2,21.1,22.26,30.38c-.24,0-.4,0-.55,0h-12.8a.9.9,0,0,1-.82-.44Q409,164.63,401.4,153.87Z"/><path class="cls-1" d="M105.07,124.33h10.56v21.19l2.27-2.42q8.67-9.24,17.35-18.47a1,1,0,0,1,.66-.31c4.41,0,8.82,0,13.24,0h.11l-21.07,21,22.32,30.45c-.22,0-.37.05-.53.05H137.14a.85.85,0,0,1-.78-.42q-7.58-10.77-15.19-21.53c-.1-.15-.22-.3-.39-.53l-1.46,1.52c-1.1,1.13-2.2,2.26-3.32,3.37a1.12,1.12,0,0,0-.36.89q0,8,0,16v.7H105.07Z"/><path class="cls-1" d="M353.1,124.33h11v31.32a36.21,36.21,0,0,1-1,9.1c-1.57,6-5.49,9.71-11.39,11.39a32.45,32.45,0,0,1-12.06.84,22.52,22.52,0,0,1-7.59-2,15,15,0,0,1-8.47-10.6,31.49,31.49,0,0,1-.87-7.42q0-16,0-32.06v-.59h11c0,.24,0,.5,0,.76,0,10.48,0,21,0,31.44a25.16,25.16,0,0,0,.5,5c.8,3.89,3.3,6,7.25,6.4a16.12,16.12,0,0,0,5.32-.26c3.43-.79,5.26-3.09,5.87-6.42a27.23,27.23,0,0,0,.44-4.59q0-15.78,0-31.55Z"/><path class="cls-1" d="M301.91,175.81H291.26V124.35h10.65Z"/></svg>