<svg id="Capa_1" data-name="Capa 1" xmlns="http://www.w3.org/2000/svg" viewBox="0 0 600 300"><defs><style>.cls-1{fill:#1e1e1e;}</style></defs><title>Mesa de trabajo 29</title><path class="cls-1" d="M124.2,163.4v15.84H131V163.4Z"/><path class="cls-1" d="M124.2,155.24v4.66H131v-4.66Z"/><path class="cls-1" d="M111.62,158v7a29.32,29.32,0,0,0-11.42-2.1c-12.82,0-17.24,4.43-17.24,8.39,0,3.73,4.42,8.39,17.24,8.39,4,0,8.85-.7,11.65-2.1v1.86h6.29v-21.2h-6.52ZM100.2,176.21c-7.22,0-10.49-2.56-10.49-4.89s3.27-4.89,10.49-4.89c8.39,0,11.42,2.56,11.42,4.89S108.59,176.21,100.2,176.21Z"/><path class="cls-1" d="M146.8,146.85h-8.39V120.76h-.23L111.85,141.5,86,120.76h-.24v26.09H77.37V114.93H87.85l24.23,19.34,24.23-19.34H146.8Z"/><path class="cls-1" d="M221.83,146.85h-9.32l-5.83-7.22h-34l-5.82,7.22h-9.09l26.8-31.92H195ZM202.72,135l-12.81-15.38-13,15.38Z"/><path class="cls-1" d="M289.86,146.85h-9.78l-13.75-12.11H240.7v12.11h-8.39V114.93h39.85q8,0,12.58,2.8c3,1.86,4.43,4.19,4.43,7.22a7.25,7.25,0,0,1-3.73,6.53,17.65,17.65,0,0,1-9.32,2.79Zm-18.64-17q9.79,0,9.79-4.9c0-3.49-3.49-5.36-10.48-5.36h-29.6v10.26Z"/><path class="cls-1" d="M353.94,119.59H329.71v27h-8.39v-27h-24v-4.66h56.62Z"/><path class="cls-1" d="M372.35,146.85H364V114.93h8.39Z"/><path class="cls-1" d="M446.44,146.85H436.19l-38.68-26.09v26.09h-8.39V114.93h10.49L438.29,141v-26.1h8.39v31.92Z"/><path class="cls-1" d="M521.47,146.85h-9.09l-5.82-7.22h-34l-5.83,7.22h-9.08l26.56-31.92h10.48ZM502.36,135l-12.81-15.38L476.5,135Z"/><path class="cls-1" d="M193.4,157.11h-24v27H161v-27H136.78v-4.66H193.4Z"/><path class="cls-1" d="M259.34,184.37h-9.79L235.81,172H210.18v12.12h-8.39V152.45h39.84q8,0,12.58,2.79c3,1.87,4.43,4.2,4.43,7.23a7.22,7.22,0,0,1-3.73,6.52,17.74,17.74,0,0,1-9.32,2.8Zm-18.87-17q9.78,0,9.78-4.89c0-3.5-3.49-5.36-10.48-5.36H210.41v10.25Z"/><path class="cls-1" d="M322.48,184.37H269.59V152.45h51v4.66H278v8.15h29.59v4.66H278v9.32h44.5Z"/><path class="cls-1" d="M389.59,184.37H379.1L340.66,158v26.1h-8.39V152.45h10.49l38.67,26.09V152.45h8.39v31.92Z"/><path class="cls-1" d="M453.43,157.11H429.2v27h-8.39v-27H396.58v-4.66H453.2v4.66Z"/><path class="cls-1" d="M522.63,169.46c0,5.12-3.49,8.15-10.25,11.41-6.06,2.8-13.28,4.2-22.13,4.2s-16.31-1.4-22.37-4.2c-6.76-3.26-10.25-7.45-10.25-12.58s3.49-9.32,10.25-12.58c6.06-2.8,13.51-4.2,22.13-4.2,8.86,0,16.08,1.4,22.14,4.2C519.37,159,522.63,164.33,522.63,169.46ZM514,168.29c0-3.73-2.56-6.76-7.45-9.09-4.43-2.09-9.79-3-16.08-3-7,0-12.81,1.17-17.24,3.5s-6.53,5.13-6.53,8.62,2.1,6.52,6.53,8.62c4.43,2.33,10,3.26,17.24,3.26s12.82-1.16,17.24-3.26C511.92,174.81,514,171.79,514,168.29Z"/></svg>