<svg id="Capa_1" data-name="Capa 1" xmlns="http://www.w3.org/2000/svg" viewBox="0 0 600 300"><defs><style>.cls-1{fill:#1e1e1e;}</style></defs><title>Mesa de trabajo 1</title><path class="cls-1" d="M107.14,169.67c.27,3.29,1.69,8.23,4.59,8.23h3.44c.53,0,.62.25.62.63v2.35c0,.4-.09.64-.79.64-1,0-3.34-.24-9.8-.24-7.5,0-10.59.24-11.38.24s-.8-.09-.8-.79v-2.3c0-.28.09-.53.53-.53h3.61c2.83,0,3.89-4.06,4.24-6.9.8-6.26,1.58-27.08,1.58-28.68l-.08-13.49c0-4.07-.89-6.73-4.86-6.73h-2.9c-.53,0-.62-.26-.62-.61V119c0-.28.09-.54.62-.54.88,0,3.25.26,13.69.26,4.14,0,6.87-.26,7.93-.26a1.9,1.9,0,0,1,2.12,1.5c5.64,15,12,29.67,17,42.9,1-1.67,7.66-18.09,8.21-19.33.35-.88,9.17-22,9.6-23.74.27-1,1.43-1.07,4.07-1.07,13.78,0,16.76-.26,17.74-.26.45,0,.54.26.54.8v2c0,.51-.09.77-.71.77H171.4c-2,0-2.32,1.61-2.32,3.46,0,1.33.1,23,.19,24.89s.26,21.09.26,22.68c0,3.36.81,4.77,2,4.77h4.25c.51,0,.61.25.61.63v2.2c0,.55-.1.79-.8.79-1.06,0-2.66-.24-13-.24-9,0-12.46.24-13.6.24-.63,0-.71-.24-.71-.79v-2.2c0-.46.08-.63.71-.63h4.92c1.5,0,2.32-.53,2.49-3,.09-1.06.34-17.12.34-23.3V124.67h-.51c-.92,1.5-10.77,25.53-12.36,29.13-1.87,4.06-9.72,23.64-10.17,24.45s-1.06,2-2.11,2c-.63,0-1.14-.61-1.59-1.59-.26-.62-11.92-28-12.53-29.56-1.59-4.08-9.73-23.85-10.43-24.9-.34,1.23-.52,23.58-.52,24.63S106.6,161.92,107.14,169.67Z"/><path class="cls-1" d="M203.35,181.52c-.7,0-4.78-.24-12.45-.24-5.11,0-8.56.24-9.52.24-.45,0-.7-.18-.7-.88v-1.77c0-.53.25-.72.87-.72h3.26c1,0,1.58-.34,1.69-1.75.17-2.63.17-5.4.17-7.86l-.17-12.37c0-2.45-.54-4.22-4.24-5.54-1-.36-1.07-.71-1.07-1.24v-1c0-.27.19-.44,1-.7l13.14-4.25a7.66,7.66,0,0,1,2.4-.52c.68,0,1,.44.86,1.07-.18,1.48-.18,7-.18,14.82v9.44c0,3.45,0,6.62.1,7.58.18,1.68.61,2.29,1.59,2.29h3.19c.7,0,.88.28.88.82v1.67C204.15,181.28,204,181.52,203.35,181.52ZM191.25,140a5.66,5.66,0,0,1-6.16-5.72c0-2.84,2.91-5.4,6.6-5.4,4.16,0,6.28,2.64,6.28,5.12C198,136.79,196,139.87,191.25,140Z"/><path class="cls-1" d="M219,143.56a5.16,5.16,0,0,1,2-.61,1.22,1.22,0,0,1,1.25,1.15l.7,5h.44A15.45,15.45,0,0,1,235.92,143c5.65,0,8.39,2.55,10.69,6.18H247a15.9,15.9,0,0,1,11.83-5.92c4,0,5.82.52,8.56,3.35,2.56,2.57,3.79,3.36,3.79,12.1V165c0,3-.25,7.86-.34,9.71-.1,2.47,1.13,3.43,2.54,3.43h1.77c.8,0,1,.19,1,.82v1.67c0,.64-.17.88-.6.88-.62,0-3.1-.24-9.54-.24-5.29,0-8.48.24-9.09.24s-.7-.24-.7-1.06V179c0-.63.25-.82.51-.82h.8a1.76,1.76,0,0,0,1.77-1.66c.17-2,.45-5.21.45-8.48v-8.48c0-5.46-.28-7.33-1.42-8.56-1.41-1.58-2.3-2.11-4.32-2.11-2.48,0-4.24,1.86-5.31,2.83-1.33,1.5-1.33,4.31-1.33,5.56v17.47c0,2.58.54,3.43,1.52,3.43h1.57c.81,0,1,.19,1,.82v1.59c0,.72-.16,1-.61,1-.6,0-2.91-.24-8.3-.24-6.51,0-9.53.24-10.05.24s-.62-.24-.62-.88v-1.59c0-.71.1-.9.89-.9H234c1.22,0,2.13-1.14,2.13-6.25V158.84c0-6.09-.91-8.12-2-9.09-.8-.8-2.2-1.07-4.15-1.07a6.61,6.61,0,0,0-4.86,2.74c-1.15,1.77-1.5,3.8-1.41,7.16v14.2c0,4.52.87,5.37,1.85,5.37h.8c.79,0,.89.19.89.82v1.59c0,.62-.1,1-.71,1-.81,0-3.19-.24-9.45-.24-5.91,0-8.74.24-9.45.24-.53,0-.7-.18-.7-.79V179c0-.72.1-.82,1.07-.82h2.46c.88,0,1.58-1,1.67-2.2.09-1.49.09-3.7.09-6v-11.1c0-3.88-.62-5.3-2.82-6.64l-1.77-1c-.43-.27-.6-.44-.6-.71v-1.06a.94.94,0,0,1,.51-.79Z"/><path class="cls-1" d="M282.87,176c-3.36-3.68-4.67-8.37-4.67-13.94a19.89,19.89,0,0,1,7.58-14.63A20.37,20.37,0,0,1,298.94,143a19.07,19.07,0,0,1,14.19,5.56,17.89,17.89,0,0,1,6.1,14,20.58,20.58,0,0,1-5.65,13.78c-4.24,4.41-9.35,6.17-15.36,6.17C291.77,182.49,287.37,181.18,282.87,176Zm22.95-14.11c0-10.23-3.54-15.26-7.42-15.26a5,5,0,0,0-4.76,2.37c-1.77,2.73-2.92,6.55-2.92,13.7,0,5.11.46,8.46,2.2,12.25,1.16,2.39,2.58,3.8,5.83,3.8C303.63,178.78,305.82,171.63,305.82,161.92Z"/><path class="cls-1" d="M411,174.46c-6.53-5.82-9.61-16-9.61-23.57A34.07,34.07,0,0,1,410.51,127c5-5.37,12.35-9.53,23.3-9.53,8,0,14.65,2,17.72,3.72,1.26.61,1.7.52,1.87-.1l.71-2.21c.16-.51.34-.51,1.68-.51s1.5.16,1.5,1.41c0,1.66,1.58,16.68,2,19.31.1.62,0,1.07-.44,1.15l-1.93.54c-.45.18-.8-.18-1.07-1A28.67,28.67,0,0,0,448.81,128c-3.79-3.72-8.48-6.62-15.19-6.62-12.88,0-18.35,11.74-18.27,24.8,0,5.56,1.6,16.41,7.86,23,5.73,5.93,10.77,6.63,13.77,6.63,10.06,0,17.57-4.59,20.83-9.44.45-.71.88-1.07,1.32-.71l1.5,1.32c.27.17.36.55,0,1.06-5.11,7.43-13.67,14.56-26.12,14.56C422.76,182.57,416.59,179.4,411,174.46Z"/><path class="cls-1" d="M470.61,176c-3.36-3.68-4.69-8.37-4.69-13.94a19.9,19.9,0,0,1,7.61-14.63A20.37,20.37,0,0,1,486.66,143a19.15,19.15,0,0,1,14.23,5.56,18,18,0,0,1,6.09,14,20.59,20.59,0,0,1-5.66,13.78c-4.22,4.41-9.33,6.17-15.35,6.17C479.53,182.49,475.11,181.18,470.61,176Zm22.94-14.11c0-10.23-3.52-15.26-7.41-15.26a5,5,0,0,0-4.76,2.37c-1.75,2.73-2.91,6.55-2.91,13.7,0,5.11.43,8.46,2.2,12.25,1.14,2.39,2.56,3.8,5.83,3.8C491.33,178.78,493.55,171.63,493.55,161.92Z"/><path class="cls-1" d="M344.86,144.93A14,14,0,0,1,344,140a11,11,0,0,1,3.81-8.57c2.55-2.3,6.27-3.42,11.2-3.42,4.08,0,7.17.9,9.29,2.74a8.24,8.24,0,0,1,3.19,6.48,8.45,8.45,0,0,1-3.08,6.54A25.82,25.82,0,0,1,360,148.4l11.5,16.22a62.48,62.48,0,0,0,4.12-5.78,9.89,9.89,0,0,0,1.59-5c0-1.26-.29-2.07-.89-2.41a13.64,13.64,0,0,0-4.15-.95v-1.83H388v1.83a8.22,8.22,0,0,0-4.21,1.33c-.7.63-2.07,2.71-4.09,6.18a42.72,42.72,0,0,1-2.49,3.67c-.66.95-2,2.75-4,5.41a32.62,32.62,0,0,0,4.86,5.38A6.53,6.53,0,0,0,382.3,174a4.59,4.59,0,0,0,3.09-1.07,7.61,7.61,0,0,0,1.42-1.85l1.48.89a22.34,22.34,0,0,1-3.62,5.73,11.45,11.45,0,0,1-8.64,4,11.65,11.65,0,0,1-6.81-2.3,30.37,30.37,0,0,1-4.7-4.42,43,43,0,0,1-7.13,4.38,23.59,23.59,0,0,1-10,2.3,15.35,15.35,0,0,1-9.88-3.55,11.6,11.6,0,0,1-4.38-9.46,15.41,15.41,0,0,1,5.44-11.81A41.16,41.16,0,0,1,348,151,43.1,43.1,0,0,1,344.86,144.93Zm14.57,30c.74-.39,1.85-1.07,3.34-2.07-2.47-3.42-4.13-5.71-4.94-6.87s-2.46-3.61-4.92-7.27l-3.65-5.45a18.6,18.6,0,0,0-4,3,6.72,6.72,0,0,0-1.61,4.59c0,3.09,1.27,6.37,3.77,9.81s5.3,5.2,8.3,5.2A8.55,8.55,0,0,0,359.43,175Zm2.46-30.51a5.64,5.64,0,0,0,1.94-4.48,12.31,12.31,0,0,0-1.86-6.18,5.7,5.7,0,0,0-5.15-3.23,3.89,3.89,0,0,0-4,4.41,9.88,9.88,0,0,0,1.26,4.58,48.48,48.48,0,0,0,4.38,6.64A10.38,10.38,0,0,0,361.89,144.44Z"/></svg>