<svg id="Capa_1" data-name="Capa 1" xmlns="http://www.w3.org/2000/svg" viewBox="0 0 600 300"><defs><style>.cls-1{fill:#1e1e1e;}</style></defs><title>Mesa de trabajo 9</title><path class="cls-1" d="M363.84,174.27c4.13-24.34,15.19-49,21.77-73.68,1.75,20.72,1.23,39.33,2.51,61.12-8.14,4.15-17.43,7.13-24.28,12.56m-21.59-30.73c-1.87,4.35-4.2,8.91-4.73,10a31.94,31.94,0,0,1-6.07,8.68,66,66,0,0,1-6.39,5.65c-1,.65-2,1.26-3.05,1.85-3.9,2.12-8.55,3.78-13.18,2.71-7.93-1.81-4.8-11.27-2.87-15.78,4-9.39,12.37-21.56,24.93-23.6,4.16-.68,9.89-.17,13.54,1.84,1,.57-.39,4.52-2.18,8.67m62.61,39.1-1.67-28.46c-1.28-23.7-2.71-52.65-5.86-76.19-.62-4.63,1.74-10.88-3.35-13.4-8.54-.07-9.14,10.46-10.88,15.91-7.55,23.45-14.82,47-22,70.57-2,6.43-6.45,19.62-14.6,20.5-2.75.3-.15-10.15.11-11.32,1.66-7.28,3.91-14.57,7.79-21,2.36-3.91,5.82-7.59,6.37-12.29.3-2.56-.92-8.47-3.63-9.43-4.57-1.62-8,7.59-9.24,10.49-2.38-.84-4.63-2.08-7.11-2.65-15-3.41-31.49,8.17-39.07,20.41-4.12,6.64-6.22,14.27-10,21.06a40.93,40.93,0,0,1-6.57,8.74c-.52.53-5.25,5.38-5,2.28.52-7.1,3.1-13.82,6.19-20.16a107.41,107.41,0,0,0,7.89-21c.74-3,3.86-11.2-1.26-11.43C287,125,283.38,131.72,281,136c-1.48,2.67-2.87,5.54-4.61,8.06-2.66,3.86-5.17,7.85-8,11.58-.32.42-8.32,8.89-8.65,7.55-.84-3.51.44-8.26,1.42-11.67,1.71-5.92,3.75-11.74,5.68-17.59,1.16-3.53,5.1-11.57,2.07-14.94-1.66-1.86-4.61-.65-6.28.54-4.62,3.28-5.92,9.15-8.2,14-6.85,14.61-15.44,28.3-24.35,41.71-.33.49-.67,1-1,1.55a40.07,40.07,0,0,1-5.3,7c.08-.61.16-1.13.21-1.43.59-3.5,1.17-6.56,1.77-9.37a169.25,169.25,0,0,1,4.52-16.52l1.16-3.53q1.65-5,3.28-10c.82-2.53,2.5-5.71,2.16-8.44a7,7,0,0,0-3.6-5.2,4.61,4.61,0,0,0-2.4-.67,4.78,4.78,0,0,0-3.38,1.4A86.31,86.31,0,0,0,216,145q-1.77,2.85-3.56,5.69c-1.57,2.5-3.18,5.05-4.75,7.62a141.48,141.48,0,0,0,4.89-19.65c.07-.43.15-.88.23-1.35.85-4.73,2.13-11.9-4.21-14.77a4.84,4.84,0,0,0-5.4.68c-6.09,4.8-9.78,11.53-13.35,18-.29.53-.58,1.06-.88,1.59-3.28,5.93-6.45,12.07-9.47,18.31,1-3.19,2.07-6.47,3.07-9.71.22-.7.44-1.41.65-2.11,2.27-7.25,4.61-14.76,4.93-22.65.13-3.17-2-7.22-5.66-8.23a6.32,6.32,0,0,0-1.65-.22c-2.77,0-5.74,1.64-7.74,2.74-5.35,2.94-9.71,7.62-13.93,12.15-.92,1-1.79,1.93-2.67,2.85A129.14,129.14,0,0,0,141,155.34c-4.79,7.4-6.18,13.69-4.15,18.69a5,5,0,0,0,8.66,1.06,4.13,4.13,0,0,0,.31-4c-1.32-3.24,1.06-7.22,3-10.42l.31-.53a92.16,92.16,0,0,1,10.64-13.76c3.58-4,7.42-7.83,11.14-11.52a31.39,31.39,0,0,1,7.67-6.06c-.59,5.85-2.34,11.44-4.17,17.33-.28.89-.57,1.79-.84,2.69-1.2,3.92-2.47,7.89-3.7,11.73-1.38,4.34-2.82,8.83-4.16,13.27-2.47,8.15-4.46,16.43-6.29,24.21-.94,4-1.81,8.11-2.67,12.6-.46,2.41-.68,4.85-.89,7.21-.16,1.79-.33,3.64-.6,5.42a4.92,4.92,0,0,0,1.11,4A5,5,0,0,0,160,229a4.44,4.44,0,0,0,4.31-3.38,407.86,407.86,0,0,1,20-52.69c3.57-7.88,7.66-16,12.14-24.22.4-.73.8-1.45,1.19-2.19a100.6,100.6,0,0,1,5.62-9.51c-.45,2.88-1.12,5.76-1.78,8.46-1.32,5.39-3.07,10.78-4.77,16l-.66,2c-1.19,3.66-2.47,7.35-3.71,10.93-.94,2.71-1.91,5.51-2.83,8.29-.59,1.74-1.24,3.51-1.87,5.21a87.4,87.4,0,0,0-3.65,11.56,4.68,4.68,0,0,0,.95,4,4.94,4.94,0,0,0,3.79,1.84,4.46,4.46,0,0,0,3.92-2.32c3.05-5.26,6.12-10.62,9.08-15.81,3.61-6.31,7.34-12.83,11.08-19.21,1.49-2.55,3.12-5.09,4.7-7.55,1-1.55,2-3.14,3-4.74-1.46,4.71-2.69,9.19-3.73,13.58-.07.31-.16.67-.27,1.09-2.21,9-4,18.71-.61,23a5.53,5.53,0,0,0,4.53,2.14,10.24,10.24,0,0,0,3.36-.65c4.6-1.63,7.56-5.62,10.17-9.14l.92-1.24a166.69,166.69,0,0,0,10.8-16.92l.74-1.3c-.93,1.63-.39,5.73-.39,7.59,0,6.41,4.84,11.43,11,8.68,5-2.24,8.41-7.24,11.78-11.35,1.49-1.82,3.06-4,5-5.46-2.92,7.77-5.9,26.3,4.19,26.79,3.56.18,6.06-3.4,7.67-6.05a40.63,40.63,0,0,0,2.49-4.93v0c.27-.63.54-1.26.8-1.89,2.15-4.95,4.91-9.83,8-4.28,0,0,0,0,0,.05l.06.11c.24.42.44.76.61,1a18.46,18.46,0,0,0,13.57,8.26c10.82,1.38,18.86-5.19,25.7-12.87.07,3.89,2.77,8.36,6.62,9.4,4.36,1.19,7.27-2.49,9.94-5.27q-4.5,15-8.95,30c-1.66,5.55-8,14.08-1.68,19.25,6.66-.31,8-10.06,10.06-16.74A200.49,200.49,0,0,0,358.81,186c9.68-5.39,18.82-11.32,30.14-15.07-1.15,10.57,3.5,31.87,2.51,46.89-.47,7.35-2.19,18.15,8.38,17.58,15.19-.82,4-39.23,5-52.75"/><path class="cls-1" d="M418.79,187.48c6.42,5.69,14,.45,14.23-5,.39-11.58-20.47-13.49-14.23,5"/><path class="cls-1" d="M460.66,71.08c-4.76,2.48-8.11,9.12-10.29,13.71-5.58,11.77-8.82,25-11.64,37.68-1.66,7.46-3.46,14.85-5.7,22.16,0,0,0,.09,0,.13-.27.88-.54,1.75-.83,2.6-1.75,6-1.64,9.31.87,8.86,3.79-3.34,4.7-10.22,6.7-14.79,7.43-17,17.33-33.14,22.06-51.25.65-2.47,5.46-22.54-1.12-19.1"/></svg>