<svg id="Capa_1" data-name="Capa 1" xmlns="http://www.w3.org/2000/svg" viewBox="0 0 600 300"><defs><style>.cls-1{fill:#1e1e1e;}</style></defs><title>Mesa de trabajo 2</title><path class="cls-1" d="M102.06,151.41s16.67-1,16.67-10.85-16.27-10.65-16.27-10.65H69.32l8.23,7v27.72l-8.23,6.43H95.23l-8.44-6.83v-12H89.4l21.7,18.88h17.67l-7.63-4.22ZM87,150.5V131.12s21.49-3,21.49,9.69S87,150.5,87,150.5Z"/><path class="cls-1" d="M231.41,129.91H198.27l8.23,7v27.72l-8.23,6.43h25.91l-8.44-6.83v-12s31.94,2.41,31.94-11.65C247.68,130.72,231.41,129.91,231.41,129.91ZM215.94,150.5V131.12s21.49-3,21.49,9.69S215.94,150.5,215.94,150.5Z"/><path class="cls-1" d="M162.72,127.71l-23.1,36.75-8,6.63h18.08l-7.43-6.43,4-6.63h27.11l3.82,6.53-5.43,6.53h23.91l-8.24-6.53Zm-15.27,28.72,12.65-20.69,12.06,20.69Z"/><path class="cls-1" d="M530.68,171.09l-8.23-6.53-24.71-36.85-23.1,36.75-8,6.63h18.08l-7.44-6.43,4-6.63h27.12l3.81,6.53-5.42,6.53Zm-48.2-14.66,12.65-20.69,12.05,20.69Z"/><path class="cls-1" d="M284.63,130.81l12.58,10-3.94-10.9-12.85-1.2c-12.86-1.21-28.73,1.41-28.73,13S267.52,153,267.52,153c23.45-1.2,21.33,6.83,21.33,6.83-.2,14.26-24.38,8.64-24.38,8.64L251.69,158l4.19,11.25s19.72,2.21,26.95.81,14.38-5,14.38-14.27S285,146.38,285,146.38c-27.92,1.81-25.2-7.43-25.2-7.43C259.84,125.5,284.63,130.81,284.63,130.81Z"/><polygon class="cls-1" points="463.8 129.91 436.68 129.91 445.32 136.74 445.52 164.46 436.68 171.29 463.8 171.29 454.76 164.46 454.76 136.54 463.8 129.91"/><path class="cls-1" d="M386.67,129.91H369.19l8.24,6.63v27.72l-8.24,7h18.08c5.83,0,44,2,44-20.69S393.9,129.91,386.67,129.91Zm0,39.57v-38c3,0,34.55-1.65,34.55,19C421.22,172.9,386.67,169.48,386.67,169.48Z"/><path class="cls-1" d="M333.94,128.44c-18,0-30.63,10.71-30.63,22.16s13.06,21.69,30.13,21.69,31.13-9,31.13-21.69S351.92,128.44,333.94,128.44Zm0,42.11c-14.76,0-19.38-11.51-19.38-20.18,0-5.86,4.22-20.46,19.38-20.46s19.79,11.85,19.79,20.46S348.71,170.55,333.94,170.55Z"/></svg>