<svg id="Capa_1" data-name="Capa 1" xmlns="http://www.w3.org/2000/svg" viewBox="0 0 600 300"><defs><style>.cls-1{fill:#262424;fill-rule:evenodd;}</style></defs><title>Mesa de trabajo 13</title><path class="cls-1" d="M89.94,153.34l21.51,19.5H129.6l-8.31-4.54-18.77-15.92s17-1.59,17-11.14-15-11.46-25.79-11.46H69.56l7.8,7.48v28.65l-8.74,6.93H95.21l-8-6.77V153.34Zm7.64-21.81c8.28,0,11.3,4.29,11.3,10.51s-6,9.39-11.62,9.39c-3.82,0-7.87-.08-10-.12V131.53Z"/><path class="cls-1" d="M172.1,172.84h23.71l-7.65-6.45-24.67-38.68-24.05,38.68-7.78,6.45h18.47l-7.35-6.77,4.31-7H173.5l4,7-5.39,6.77Zm-23.93-15.53,12.61-20.53,11.71,20.53Z"/><path class="cls-1" d="M507.67,172.84h23.71l-7.66-6.45L499,127.71l-24,38.68-7.78,6.45h18.46l-7.34-6.77,4.3-7h26.41l4,7-5.38,6.77Zm-23.94-15.53,12.61-20.53,11.72,20.53Z"/><path class="cls-1" d="M225.57,129.61c-11,0-26.75.33-26.75.33l7.81,7.48v28.49l-8.42,6.93h26.11l-8.14-6.61V153h9.54c10.68,0,22.93-3.82,22.93-11.94s-12.1-11.47-23.08-11.47Zm2.86,21.82H216.18V131.37h11.95c4.28,0,10.18,3.66,10.18,10S232.09,151.43,228.43,151.43Z"/><path class="cls-1" d="M298,141.71l-3.66-11.93-9.39-.64s-6.21-1.59-16.56-.32-16.71,7-16.23,15.28,10,9.88,17.67,9.88,19.58,0,19.73,7.15-6.37,9.56-12.25,9.88a50.2,50.2,0,0,1-12.1-1.11l-12.74-10.83,3.5,12.42s10,.55,13.07.95,18.46,1,24.34-4.3,7.9-16-1.74-19.42c-11.78-4.14-30.89,1.92-30.89-9.55,0-11,18.15-9.71,24.36-8.28Z"/><path class="cls-1" d="M378.24,137.42l-8.12-7.48h29.93c14.65,0,32.47,6.68,32.47,20.7s-15.09,22.2-32.77,22.2H369.8l8.44-7.09V137.42ZM388,170.54s34.07,3,34.07-19.11-33.91-19.27-33.91-19.27Z"/><polygon class="cls-1" points="446.21 137.26 446.21 166.07 437.17 172.84 464.7 172.84 456.4 165.91 456.4 137.42 464.84 129.94 437.46 129.94 446.21 137.26"/><path class="cls-1" d="M304.32,151.59c0-12.44,13.71-22.52,30.61-22.52s30.63,10.08,30.63,22.52-13.71,22.51-30.63,22.51S304.32,164,304.32,151.59Zm30.61,20.89c11.17,0,20.22-9.35,20.22-20.89s-9-20.89-20.22-20.89-20.2,9.35-20.2,20.89S323.77,172.48,334.93,172.48Z"/><path class="cls-1" d="M386.87,211.07c-1.18,0-1.25,0-1.89.41-1,.66-1.91,1.3-2.8,2s-9.14,5.82-9.95,6.25-1.55.66-2.3,1.07a.61.61,0,0,1-.74-.1,1.64,1.64,0,0,1-.21-.4,22.42,22.42,0,0,0-2.4-5.1,10.1,10.1,0,0,1-.57-1.14c-.07-.17-.1-.35-.15-.47.08-.6.15-1.13.19-1.58a2.36,2.36,0,0,0-1.58-1.53,2.3,2.3,0,0,0-2.18,0c-.12.27-.26.61-.42.92a5.93,5.93,0,0,1-.75,1.24c-.65.71-1.29,1.41-2,2.1-2,1.44-8.23,8.68-8.53,8.72-.81.81-6.56,5.58-7.9,5.66a4.17,4.17,0,0,1-2.61-.41c-.05-.12-.1-.22-.12-.28-.8-3.1-.41-4.21-.07-7.38a24.6,24.6,0,0,1,1.62-6.73,18.58,18.58,0,0,1,1.9-4.05c.66-.85,4.58-4.1,5.59-5.16a21.91,21.91,0,0,0,1.85-2c1.11-1.59,2.19-3.21,3.19-4.88,1.78-3,3.33-6.08,4.85-9.2.43-.86.66-1.83,1.13-2.69a65.23,65.23,0,0,0,2.63-8.32,16.24,16.24,0,0,0,.6-4.86c-.36-.52-.17-1.94-4-1.79l-1.72.49a11.41,11.41,0,0,0-3.64,3.5c-.92,1.42-2.18,2.61-3,4.1a50.42,50.42,0,0,0-2.94,5c-.62,1.46-1.43,2.82-2.09,4.25-.86,1.82-3.54,9-4,10.34a41.43,41.43,0,0,0-1.69,5.77c-.3,1.54-.56,3.09-.82,4.58a57.22,57.22,0,0,1-7,6.74c-2.17,1.85-4.56,3.44-6.75,5.26-1,.81-2,1.6-3,2.36-2.3,1.71-4.63,3.36-6.89,5.1a30.45,30.45,0,0,1-5.23,3,2.71,2.71,0,0,1-1.61.24.79.79,0,0,1-.76-.79,101.46,101.46,0,0,0,5.45-11.45c2-5.05-4.08-6.6-5.27-7.33a1.59,1.59,0,0,1-1-1.17c1.59-2.41,2.1-5.26,1.85-6.36a3.81,3.81,0,0,0-4.66-.45,10.41,10.41,0,0,0-1.91,3.13c-.07,1.37.71,2.73,1.09,4-2.29,3.22-6.56,6.17-8.16,7.4-2,1.51-12.76,9.29-14.53,10.35a3.69,3.69,0,0,1-2.1.6c-3.93-.34-.25-7,.47-8.77s1.24-3.8,1.92-5.69a1.73,1.73,0,0,0,0-.56,2.46,2.46,0,0,0-1.91-1.38,3.92,3.92,0,0,0-.76.25,32.75,32.75,0,0,1-5,2.23,5.84,5.84,0,0,0-.65.35c-1.08.54-14.21,7-17.13,8.88a.75.75,0,0,1-1-.15c-.34-1.67-.05-3.52-.37-5.27-.58-.9.15-3.36-6.44-4a27.31,27.31,0,0,0-1.85-4.65,5.94,5.94,0,0,0-4.11-2.24c-.26,0-2.78-.67-7.8,1.83a52,52,0,0,0-7.18,4.68,25.55,25.55,0,0,0-5.62,5.7,6.37,6.37,0,0,0-1.27,3.36,1.94,1.94,0,0,0,.74,1.78,4.34,4.34,0,0,0,.76.5,6.62,6.62,0,0,0,6,0c.75-.39,1.56-.69,2.34-1,1.11-.47,8.89-3.92,11.69-5.11a19.77,19.77,0,0,1,2.62-.79c.2-.06,3-.77,3.84-.88a2.57,2.57,0,0,1,1.74,0A2,2,0,0,1,251,220a5.31,5.31,0,0,1,.47,1.94,30.32,30.32,0,0,1-.28,5.9c-1.1,1.41-2.17,2.73-3.24,4.05-.23.29-.51.51-.76.78-1.31,1.36-9.16,12.38-10.36,14.51-.11.22-5.84,10.49-6.16,11.14a44.23,44.23,0,0,0-2,4.87c-.56,1.6-1.13,3.21-1.73,4.8a24.74,24.74,0,0,0-.85,4.29c.07,11.7,9.77,3.79,10.69,2.91,2.19-2.09,6.75-10,7.57-11.33a39,39,0,0,0,2.26-4c.85-1.82,4.88-12,5.77-15a25.61,25.61,0,0,0,1-4.25c.28-2.3.37-4.62.57-6.92.14-1.51.32-3,.47-4.39a6.43,6.43,0,0,1,2.73-2.56c1.13-.6,8.62-4.49,9.24-4.72s5.23-2.5,6.07-2.85c1.29-.54,2.56-1.12,3.85-1.67a4.77,4.77,0,0,1,.77-.08,6.64,6.64,0,0,1-.69,1.9c-.16.25-1.09,2.61-1.44,3.53-.25.67-.57,1.34-.76,2a17.28,17.28,0,0,0-.59,2.86,4.34,4.34,0,0,0,2.79,4.65,4.91,4.91,0,0,0,4.4-.18,54.34,54.34,0,0,0,4.78-3c4.28-3.12,8.49-6.33,12.73-9.5A72.25,72.25,0,0,0,305,214a4.86,4.86,0,0,1,.85-.57c.67.36,1.27.64,1.84,1a12.49,12.49,0,0,1,1.8,1.24,3.28,3.28,0,0,1,1.21,3.58,20.12,20.12,0,0,1-.79,2.42c-.56,1.21-1.19,2.39-1.82,3.58-3.15,5.91-2.28,6.91-1.22,8.25a4.67,4.67,0,0,0,2.43.65,7.07,7.07,0,0,0,3.84-1c.73-.43,15.25-10.59,16.53-11.61,1.86-1.47,3.79-2.85,5.69-4.27.64-.48,1.27-.95,1.93-1.38.11-.08.31,0,.45,0a1.52,1.52,0,0,1,0,1.11c-.24,1.14-.58,2.25-.74,3.39a29.57,29.57,0,0,0-.23,6.76c.47,2.47,1.4,5,4.94,4.55,0,0,0,0,0,0,4.93-.3,9.08-4.82,12.19-8.11l1.57-1.66a9.12,9.12,0,0,0,.92-.95c.26-.32.52-.63.79-.93,0,0,0,0,0,0a33.22,33.22,0,0,1,2.62-2.55,13.9,13.9,0,0,1,3-2.42,5.85,5.85,0,0,1,.61.89c.62,1.32,1.25,2.63,1.82,4a6.72,6.72,0,0,1,.65,2.66,6.53,6.53,0,0,1-2.17,1.88,8.3,8.3,0,0,0-.77.47,28.61,28.61,0,0,0-3.78,3.92,13.75,13.75,0,0,0-1.91,3.71,4.34,4.34,0,0,0-.12,2.34,2.65,2.65,0,0,0,1.23,2,4.64,4.64,0,0,0,5-.16,16.8,16.8,0,0,0,4.15-4.3,5.13,5.13,0,0,0,.41-.81,14.25,14.25,0,0,0,1.22-6,2.18,2.18,0,0,1,.21-1.43,50.37,50.37,0,0,0,5.22-2.92c3-1.93,5.93-3.83,8.9-5.73a18.07,18.07,0,0,0,3-2.64,2.86,2.86,0,0,0,.49-1A.52.52,0,0,0,386.87,211.07ZM343.23,205a111.62,111.62,0,0,1,5.67-14.43c.5-1,1-2.08,1.48-3.13,1.13-2.43,2.6-4.66,3.88-7a8.28,8.28,0,0,1,1.68-2.14c.81-.75,3.63-3.52,4.86-3.55a1.19,1.19,0,0,1,.37,1.32c-7.2,19.71-11,23-11.95,24.31-1.19,1.6-2.56,3.06-3.87,4.58-.16.17-2.27,2.48-2.54,2.69-.06-.23-.18-.39-.15-.51C342.82,206.37,343,205.67,343.23,205Zm-97.94,11.82c-.44.12-.84.21-1.24.35-1.82.66-3.66,1.3-5.47,2-2,.78-3.94,1.59-5.91,2.4A52.66,52.66,0,0,1,226,224a4.37,4.37,0,0,1-2,.28l-.44-.55A5.07,5.07,0,0,1,225,221a18.73,18.73,0,0,1,2.34-2.29,45.51,45.51,0,0,1,7.05-4.86c.38-.19.73-.46,1.21-.76a29.23,29.23,0,0,1,5.39-1.07,5.53,5.53,0,0,1,3.59.67A8.27,8.27,0,0,1,245.29,216.79ZM239,267.38c-1.58,2.65-4.27,8.31-9.22,8.62a1.32,1.32,0,0,1-.66-1.16c0-1.16-.06-2.32,0-3.46a19.8,19.8,0,0,1,1.09-5c.64-1.84,1.21-3.7,1.9-5.52a25.05,25.05,0,0,1,1.43-2.95c.61-1.19,1.32-2.34,1.9-3.54a47.39,47.39,0,0,1,4.4-7.34c.81-1.13,1.52-2.35,2.25-3.54a20.28,20.28,0,0,1,1.79-2.53c1.12-1.28,2.17-2.62,3.28-3.91.72-.84,1.47-1.63,2.21-2.44.15-.16.32-.38.66-.29,0,.15.38.78.42.94C252.66,243.65,240.43,265,239,267.38Zm67.73-59.1a3,3,0,0,1-1.35,1.46,1.13,1.13,0,0,1-.75-1.1,2,2,0,0,1,.8-1.8l1.15.06c.12.2.28.35.28.49A2.67,2.67,0,0,1,306.76,208.28Zm59.07,19.95a30.57,30.57,0,0,1-1.54,3.51,5.88,5.88,0,0,1-2.7,2.87,5.25,5.25,0,0,1-.95.27c-.24-.2-.6-.37-.75-.66a1.71,1.71,0,0,1-.15-1.05,6.13,6.13,0,0,1,1.42-3.11,24.81,24.81,0,0,1,4.68-4.3,2,2,0,0,1,.52-.12A5.37,5.37,0,0,1,365.83,228.23Z"/><path class="cls-1" d="M282,206.84a11.66,11.66,0,0,0,2,.87,1.25,1.25,0,0,0,.46,0c.21-.17.5-.38.85-.64a2.12,2.12,0,0,0-1.47-2c-.9-.46-1.83-.93-2.88-.36A2,2,0,0,0,282,206.84Z"/></svg>