<svg id="Capa_1" data-name="Capa 1" xmlns="http://www.w3.org/2000/svg" viewBox="0 0 600 300"><defs><style>.cls-1{fill:#1e1e1e;}</style></defs><title>Mesa de trabajo 19</title><path class="cls-1" d="M258.93,181.64H240.72l-.15-.45c-7.91-24.72-10.78-33.72-11.83-37l-12.88,37.46H197.92l-19-62.49h18.15l11.09,36.3c1-3,3.21-9,6.11-16.95,2-5.52,3.91-10.72,4.11-11.39a13.73,13.73,0,0,0,.74-3.13c0-1-.4-1.29-.77-1.44a5.48,5.48,0,0,0-2.08-.44h-.64v-2.95h22.08l.16.42c3.32,9.5,10.32,29.56,12.52,35.89l10.46-36.31h17l-18.91,62.49Z"/><path class="cls-1" d="M445.05,181.64v-47H427.22a2.08,2.08,0,0,0-1.17.44c-.16.1-.52.52-.52,2v.63H422.7V119.16H486v18.53h-2.83v-.64c0-1-.2-1.77-.52-2a1.94,1.94,0,0,0-1.17-.44h-17.9v47Z"/><path class="cls-1" d="M344.47,181.63H284.28v-62.5h60.19v18.8h-2.84v-.64c0-1.54-.33-2-.54-2.21a1.84,1.84,0,0,0-1.14-.48H302.87v8.06l28.16,0V156l-28.16,0v10.52h36c.9,0,2.14-.29,2.74-3l.1-.49h2.72v18.58Z"/><path class="cls-1" d="M414.59,181.63H354.37v-62.5h60.22v18.7h-2.85v-.64c0-1.56-.35-2.06-.55-2.23a1.87,1.87,0,0,0-1.14-.49H373v8.19h28.15V156H373v10.52h36c.88,0,2.13-.29,2.72-3l.12-.49h2.73v18.58Z"/><path class="cls-1" d="M146.1,182.06a73.28,73.28,0,0,1-9.51-.64c-3.18-.41-6.15-.93-8.84-1.55l-1.51-.34c-2-.48-3.77-.93-5.19-1.33l-1.26-.36-.14,0a49.18,49.18,0,0,1-5.2-2.17l-.46-.24,4.71-16.6,2.72,1.36s-.13,1.6-.13,1.92c-.11,4,35,12.15,35.81,1.24.64-9-42.47-1.79-42.26-23.63.22-20.12,24-21.62,29.33-21.72a66.41,66.41,0,0,1,28.91,6l.56.27-6.93,15.67-2.64-1.3a6.12,6.12,0,0,0,.12-1.53c-1.26-4.74-31.1-8.5-31.27.56,0,1.39.87,2.36,2.66,2.95a41.62,41.62,0,0,0,7.71,1.64l10.21,1.4a46.62,46.62,0,0,1,10.34,2.61,20.72,20.72,0,0,1,8.06,5.38c2.17,2.37,3.26,5.73,3.26,10a19.18,19.18,0,0,1-1.73,8,18.06,18.06,0,0,1-5.36,6.7,24.91,24.91,0,0,1-9.07,4.37,50,50,0,0,1-12.9,1.48Z"/></svg>