<svg id="Capa_1" data-name="Capa 1" xmlns="http://www.w3.org/2000/svg" viewBox="0 0 600 300"><defs><style>.cls-1{fill:#1e1e1e;}</style></defs><title>Mesa de trabajo 7</title><path class="cls-1" d="M154.79,173.07H136.46V138.34l-25.25,0V127.09h68.63v11.25l-25.07,0v34.75Zm40.45-46h18.33v27.32c0,3.11.86,5.17,2.76,6.22s5.87,1.55,12.1,1.55H238.8c5.19,0,8.65-.51,10.37-1.72,1.73-1,2.6-3.12,2.6-6.05V127.1H270.1v31.64c0,5.35-1.91,9.16-5.71,11.58-3.8,2.25-10.37,3.29-19.7,3.29H224.11c-11.06,0-18.48-1-22.66-3.29-4.14-2.08-6.22-6.05-6.22-11.58V127.09Zm148.15,16.6v-.51a4.36,4.36,0,0,0-2.42-4c-1.55-.86-4-1.22-7.25-1.22H319c-6.4,0-10.38.51-12.27,1.72-1.73,1.22-2.59,3.63-2.59,7.26l0,6.4c0,3.46,1.05,5.71,3,6.9,2.07,1.22,5.87,1.92,11.92,1.92h10.55c5.86,0,9.67-.52,11.58-1.39a5.23,5.23,0,0,0,2.76-5v-.5h18.5a.55.55,0,0,0,.18.34c0,1.39,0,2.42,0,2.93,0,2.95-.34,5.55-1.39,7.44a9.92,9.92,0,0,1-4.66,4.51,20.7,20.7,0,0,1-7.78,2.41,101.69,101.69,0,0,1-14.35.69H313.84a90.68,90.68,0,0,1-13.83-.69,22.86,22.86,0,0,1-7.62-2.6,14.75,14.75,0,0,1-5.36-5.53,18,18,0,0,1-1.56-7.95V144.21c0-6.57,1.91-11.24,6.06-13.83s11.59-4,22.31-4H334.4a135.49,135.49,0,0,1,14.52.69,23.52,23.52,0,0,1,7.44,2.25A10.65,10.65,0,0,1,360.5,134a15.85,15.85,0,0,1,1.4,7.08c0,.51,0,1.21,0,1.55a1.89,1.89,0,0,1-.16,1Zm92.32,0v-.54a4.27,4.27,0,0,0-2.26-4c-1.55-.86-4-1.22-7.43-1.22H411.34c-6.23,0-10.37.52-12.11,1.73s-2.76,3.62-2.76,7.26v6.4c0,3.46,1,5.7,3.11,6.9,1.91,1.22,5.88,1.91,11.76,1.91h10.72c5.87,0,9.68-.51,11.4-1.38,1.91-.86,2.77-2.58,2.77-5v-.5h18.68v.34a22.37,22.37,0,0,1,.16,2.94,15.77,15.77,0,0,1-1.55,7.43,9.49,9.49,0,0,1-4.5,4.5,20.47,20.47,0,0,1-7.77,2.41,102.9,102.9,0,0,1-14.53.7H406.31a91.78,91.78,0,0,1-14-.7,24.15,24.15,0,0,1-7.6-2.59,13.16,13.16,0,0,1-5.19-5.53,16,16,0,0,1-1.72-8V144.2c0-6.56,2.07-11.23,6.22-13.82,4-2.6,11.41-4,22.3-4h20.4a133.83,133.83,0,0,1,14.69.69,21.23,21.23,0,0,1,7.27,2.25A11.12,11.12,0,0,1,453,134a16.16,16.16,0,0,1,1.38,7.09c0,.51,0,1.2,0,1.55s-.16.7-.16,1l-18.5,0Zm53.08,29.36-18.51,0v-46h18.5Z"/></svg>