<?xml version="1.0" encoding="utf-8"?>
<!-- Generator: Adobe Illustrator 23.0.1, SVG Export Plug-In . SVG Version: 6.00 Build 0)  -->
<svg version="1.1" id="Capa_1" xmlns="http://www.w3.org/2000/svg" xmlns:xlink="http://www.w3.org/1999/xlink" x="0px" y="0px"
	 viewBox="0 0 600 300" style="enable-background:new 0 0 600 300;" xml:space="preserve">
<style type="text/css">
	.st0{fill:#181818;}
</style>
<g>
	<path class="st0" d="M213.9,96.3h-0.5c-3.7,0-4.7,1.1-4.7,4.7v43.7c0,13.1-13,24.4-26.2,24.4c-15.4,0-19.5-8.2-19.5-22.9V101
		c0-3.6-1.1-4.7-4.7-4.7h-0.5c-3.7,0-4.7,1.1-4.7,4.7v40.9c0,19.8,3.7,36.2,26.2,36.2c12.2,0,22.8-6.3,29.4-16.7l0.1,0.1v10.1
		c0,3.7,1.1,4.7,4.7,4.7h0.5c3.7,0,4.7-1.1,4.7-4.7V101C218.6,97.4,217.5,96.3,213.9,96.3"/>
	<path class="st0" d="M337.2,94.5c-13.9,0-24.5,8-29.6,18.3c-2.5-10.9-8.8-18.3-23.6-18.3c-11.4,0-21.2,6.3-27.9,16.7l-0.1,0V101
		c0-3.6-1.1-4.7-4.7-4.7h-0.5c-3.7,0-4.7,1.1-4.7,4.7v70.5c0,3.7,1.1,4.7,4.7,4.7h0.5c3.6,0,4.7-1.1,4.7-4.7v-43.7
		c0-13.1,12.2-24.4,24.7-24.4c14.8,0,18.1,8.2,18.1,23v45.1c0,3.7,1.1,4.7,4.7,4.7h0.5c3.7,0,4.7-1.1,4.7-4.7v-44.7
		c0-13.9,12-23.4,24.7-23.4c14.7,0,18.1,8.2,18.1,23v45.1c0,3.7,1.1,4.7,4.7,4.7h0.5c3.7,0,4.7-1.1,4.7-4.7v-40.9
		C361.5,111.4,358.7,94.5,337.2,94.5"/>
	<path class="st0" d="M416.6,94.5c-12.9,0-24.1,6.5-29.6,16.6c-0.3,0.7-0.5,1.2-0.5,1.6c0,0.8,0.5,1.3,1.7,2l0.4,0.2
		c0.7,0.4,1.2,0.6,1.7,0.6c0.7,0,1.4-0.5,2.2-1.5c5.6-6.5,14.3-11.2,22.9-11.2c15.2,0,21.7,9.7,21.7,22.3v4
		c-5.7-0.8-11.1-1.3-16.6-1.3c-18.7,0-38.8,5.9-38.8,26.5c0,15.3,12.4,23.7,28.1,23.7c11.7,0,20.6-6.2,27.2-16.1l0.1,0v9.5
		c0,3.6,1.1,4.7,4.7,4.7h0.5c3.6,0,4.7-1.1,4.7-4.7v-43.9C447,106.7,439.5,94.5,416.6,94.5 M437.1,146.2c0,15.8-14.7,24.4-24.5,24.4
		c-11,0-20.2-5.9-20.2-17.3c0-14.6,14.8-18.5,27.1-18.5c7.2,0,12.6,0.6,17.6,1.4L437.1,146.2L437.1,146.2z"/>
	<path class="st0" d="M188.2,197.7c-2.7,0-4.9,2.2-4.9,4.9c0,2.7,2.2,4.9,4.9,4.9c2.7,0,4.9-2.2,4.9-4.9
		C193.1,199.9,190.9,197.7,188.2,197.7"/>
</g>
</svg>
