<svg id="Capa_1" data-name="Capa 1" xmlns="http://www.w3.org/2000/svg" viewBox="0 0 600 300"><defs><style>.cls-1{fill:#1e1e1e;fill-rule:evenodd;}</style></defs><title>Mesa de trabajo 20</title><path class="cls-1" d="M193.63,122c1.21-1.65,3.92-2.15,6.12-3.1l19.54-8.14c4.39-1.9,8.73-3.78,12.94-5.51l39.4-16.5c3.25-1.41,25.15-10.7,26.74-10.7h3.26c1.77,0,33.31,13.53,39.3,16.05l58.93,24.65c1.7.67,5.5,1.88,6.51,3.25-1.15,1.58-3,1.91-6.05,3.18l-19.93,8.29c-6.29,2.58-76.28,32.89-80.38,32.91-3.88,0-50.18-20.22-53.66-21.66L196.64,123.9c-2.06-.83-1.88-.34-3-1.88Zm-29.31-.54a7.07,7.07,0,0,0,1.75,5.31c1.38,1.56,10.3,4.9,12.59,5.86,16,6.7,36.45,14.77,51.69,21.58,16.38,7.32,34.73,14.4,51.59,21.68,23.28,10,16.54,7.48,44.5-3.57l43.21-18.11c15.22-6.8,35.71-14.87,51.69-21.58,9.05-3.8,14.34-4.29,14.34-11.17,0-5.53-8.19-7.38-14.43-10L386.83,97.06c-5.82-2.3-11.26-4.86-17.21-7.21C350,82.1,329.39,72.63,309.53,64.73c-9.85-3.91-8.84-4.1-18.67-.15-19.95,8-40.9,17.53-60.48,25.27l-51.63,21.63c-6.29,2.65-14.43,4.49-14.43,10Z"/><path class="cls-1" d="M269.07,121.48C272,121.24,298.62,109,300,109c.44,0,13.76,5.6,15.38,6.33,2.39,1.07,13.79,6,15.55,6.15v1.09a47.21,47.21,0,0,0-7.82,3L300,135.05c-.94,0-13.4-5.43-15.43-6.28l-15.5-7.29Zm-34.2.54c0,3.53,11.72,7.13,14.89,8.46,5.76,2.42,10.79,4.46,16.44,6.89s11.11,4.65,16.52,6.82c21.19,8.52,12.8,8.91,34.18.16l41.36-17.25c2.48-1.11,6.87-2.07,6.87-5.08s-4.23-3.85-6.53-4.87c-7.92-3.49-55.44-23.89-59.14-23.89-1.6,0-14.3,5.58-16.75,6.59-5.37,2.19-11,4.73-16.44,6.9-5.65,2.27-10.67,4.61-16.44,6.9l-12.27,5.1c-1.37.61-2.69,1.35-2.69,3.27Z"/><path class="cls-1" d="M317.37,210.49c9.78,0,9.51,15.76,3,18.25-12.08,4.64-14.14-18.25-3-18.25Zm-19.54,27.08,11.4.05v-6c4.35,5,6.2,6.52,13,6.52a13.92,13.92,0,0,0,10.95-5.34c8.58-10.83,3.91-31.57-10.95-31.57-6.24,0-8.31,2.46-11.94,4.89V189.86H297.83v47.71Z"/><path class="cls-1" d="M377.61,220.26c0-13.74,16.82-14.89,16.82-.55,0,14.73-16.82,12.65-16.82.55Zm-11.94,0c0,10.3,8.72,17.91,18.45,17.91,9.18,0,16.75-1.49,21-10.48,5.39-11.38-1.55-26.43-19.37-26.43-7.94,0-15.56,4.32-18.46,10.84a20.38,20.38,0,0,0-1.62,8.16Z"/><path class="cls-1" d="M193.09,220.26c0,24.18,27.6,19.14,32.89,12.81,5.62-6.72,4-19.87,4-30.72H217.51v19c0,11.32-11.94,9.89-11.94,1.09V202.35H193.09v17.91Z"/><path class="cls-1" d="M351.51,208.18l.05-5.83h-11.4v35.27H352.6l0-16.86c.15-7.32,5.49-10.29,12.51-8.65V201.8c-10.26-2.39-13.08,4.3-13.62,6.38Z"/><path class="cls-1" d="M234,237.45l-.09-34.66h10.71v6.48c5.35-9.08,18.6-9.33,24.23-1,7.61-11.43,24.52-6.89,24.52,4.88v24.61H281.22V217.07c0-7.39-11.21-6.89-11.55,3.19v17.29H257.83V217.44c0-8-11.84-6.54-11.83,2.73v17.28Z"/></svg>