<svg id="Capa_1" data-name="Capa 1" xmlns="http://www.w3.org/2000/svg" viewBox="0 0 600 300"><defs><style>.cls-1{fill:#1e1e1e;}</style></defs><title>Mesa de trabajo 8</title><path class="cls-1" d="M340.57,128.71c2.25,0,5.68-.5,5.62.57s-1.4.83-2.33,2.51a8.9,8.9,0,0,0-.8,4.66v28a8.8,8.8,0,0,0,.78,4.64c.92,1.68,2.5,1.43,2.35,2.51s-2.68.54-5.6.54h-.05c-2.93,0-5.41.54-5.57-.54s1.45-.83,2.35-2.51a8.84,8.84,0,0,0,.81-4.64V134.77h0s-13,29.15-15.08,35.7c-.32.92-1,3.27-1.72,2s-3.17-6.43-4.68-10.29-11.22-26.41-11.22-26.41l-.11,28.8a9,9,0,0,0,.81,4.66c.93,1.68,2.5,1.4,2.33,2.48-.09.79-1,.66-4,.51h-.08c-3.06.15-4.75.28-4.88-.51-.15-1.08,1.43-.8,2.36-2.48a9,9,0,0,0,.78-4.66v-28a9,9,0,0,0-.78-4.66c-.93-1.67-2.51-1.4-2.36-2.5s2.89-.31,9.28-.32c0,0,9,20.92,14.25,33.13h.24l14.09-33.42S339.38,128.71,340.57,128.71Z"/><path class="cls-1" d="M379.66,136.61a9.14,9.14,0,0,0-.79-4.67c-.93-1.66-2.52-1.4-2.36-2.49s2.63-.53,5.54-.53h.07c2.94,0,5.44-.57,5.62.53s-1.46.83-2.36,2.49a9.08,9.08,0,0,0-.8,4.68v27.75a9,9,0,0,0,.8,4.67c.9,1.67,2.49,1.4,2.36,2.51s-2.68.52-5.62.52h-.07c-2.91,0-5.39.57-5.54-.52s1.43-.84,2.36-2.51a9.13,9.13,0,0,0,.79-4.67Z"/><path class="cls-1" d="M150.84,136.61a8.91,8.91,0,0,0-.83-4.67c-.9-1.66-2.49-1.4-2.33-2.49s2.62-.53,5.56-.53h0c2.92,0,5.43-.57,5.59.53s-1.44.83-2.34,2.49a9.08,9.08,0,0,0-.8,4.68v27.75a9,9,0,0,0,.8,4.67c.9,1.67,2.5,1.4,2.34,2.51s-2.67.52-5.59.52h0c-2.94,0-5.39.57-5.56-.52s1.43-.84,2.33-2.51a8.88,8.88,0,0,0,.82-4.67Z"/><path class="cls-1" d="M458.54,173.63s-1.92-.46-6.6-5.88c-6.1-6.77-28-32-28-32V164.6a8.55,8.55,0,0,0,.75,4.61c.91,1.68,2.49,1.42,2.35,2.49-.12.78-1,.65-4,.5h-.09c-3,.16-4.72.28-4.83-.5-.15-1.07,1.41-.81,2.34-2.49a8.77,8.77,0,0,0,.73-4.66v-28a9.23,9.23,0,0,0-.79-4.66c-.95-1.67-2.5-1.4-2.35-2.5s2.18-.31,8.6-.32l18.6,22.46A152.36,152.36,0,0,0,455.56,163V136.69a9.62,9.62,0,0,0-.77-4.83c-.93-1.66-2.5-1.41-2.33-2.5.1-.77,1-.64,4-.48h.08c3-.16,4.74-.29,4.84.48.15,1.09-1.29.82-2.23,2.5s-.62,3.45-.62,4.67v37.1Z"/><path class="cls-1" d="M276.65,169.1a12.38,12.38,0,0,1-1.45-2.63l-.75-1.8c-.14-.38-15-36.65-15-36.65-.13-.24-.23-.42-.79-.42s-.54.07-.84.9l-3.1,7.89c-3.87,9.85-7.82,20.76-12.28,31.6a8,8,0,0,1-1,1.7c-1.28,1.41-2,.92-1.87,2,.11.77,1.13.63,4.16.49h.08c3,.14,3.92.28,4-.49.17-1.09-.79-.4-1.71-2.06a3.06,3.06,0,0,1-.05-2.63l10.49-28.39c.22-.74.41-1,.53-1s.25.17.66,1.08l3.94,9,1.52,4h-11a5.55,5.55,0,0,0,.17.76,3.24,3.24,0,0,0,2.94,2h9L269,167c.43,1.2.69,2.37.32,2.94-.63.9-1.58,1-1.58,1.78s2.63.44,5.55.44h.05c2.94,0,5.46.55,5.62-.54S277.81,170.61,276.65,169.1Z"/><path class="cls-1" d="M517.94,169.1a14.47,14.47,0,0,1-1.47-2.63l-.74-1.8c-.13-.38-15-36.65-15-36.65-.11-.24-.25-.42-.78-.42s-.54.07-.85.9l-3.09,7.89c-3.9,9.85-7.82,20.76-12.3,31.6a7.25,7.25,0,0,1-1,1.7c-1.26,1.41-2,.92-1.87,2,.1.77,1.12.63,4.16.49h.07c3,.14,3.92.28,4-.49.18-1.09-.78-.4-1.71-2.06a3.06,3.06,0,0,1-.05-2.63l10.5-28.39c.24-.74.41-1,.54-1s.24.17.67,1.08l3.93,9,1.52,4h-11a7.06,7.06,0,0,0,.16.76,3.23,3.23,0,0,0,2.94,2h9L510.33,167c.41,1.2.69,2.37.3,2.94-.63.9-1.55,1-1.55,1.78s2.6.44,5.54.44h.06c2.94,0,5.42.55,5.59-.54S519.09,170.61,517.94,169.1Z"/><path class="cls-1" d="M119.11,129.1c-.09-.77-1.1-.62-4.12-.49h-.09c-3-.13-3.91-.28-4,.49-.18,1.1.77.42,1.68,2.08a3,3,0,0,1,.06,2.64L102.13,162.2c-.23.71-.42,1-.53,1s-.25-.19-.68-1.11l-3.94-9-7.31-19.22c-.42-1.2-.71-2.37-.29-3,.61-.91,1.55-.95,1.55-1.79s-2.61-.42-5.56-.42h-.05c-2.92,0-5.43-.56-5.59.54s1.18,1,2.33,2.51a11.85,11.85,0,0,1,1.46,2.62l.76,1.79c.13.37,14.94,36.65,14.94,36.65a.75.75,0,0,0,.79.43c.42,0,.56-.07.84-.94l3.09-7.85c3.9-9.86,7.83-20.76,12.3-31.62a7.37,7.37,0,0,1,1-1.69C118.54,129.7,119.24,130.2,119.11,129.1Z"/><path class="cls-1" d="M223.26,126.39c-1.09-.16-1.14,1.12-2.83,2a6.77,6.77,0,0,1-2.74.75H193.11s-3.36.13-4.33-.3c-1.43-.67-1-1.58-2.1-1.66-.75-.06-.71,1.94-1,3.88s-.68,3.86.08,4c1.1.16,1-1.42,2.65-2.33a8.83,8.83,0,0,1,4.67-.76h8.94v32.4a8.84,8.84,0,0,1-.8,4.67c-.91,1.67-2.49,1.4-2.35,2.51s2.63.52,5.57.52h0c2.94,0,5.46.57,5.6-.52s-1.43-.84-2.35-2.51a8.92,8.92,0,0,1-.79-4.67V132h10.92a7,7,0,0,1,2.19.32c1.45.67,1.16,1.6,2.22,1.68.77.07.58-2,.89-3.84S224.05,126.5,223.26,126.39Z"/></svg>