<svg id="Capa_1" data-name="Capa 1" xmlns="http://www.w3.org/2000/svg" viewBox="0 0 600 300"><defs><style>.cls-1{fill:#0e0e0e;}</style></defs><title>Mesa de trabajo 6</title><polygon class="cls-1" points="189.74 91.23 189.74 88.11 172.58 88.11 172.58 91.23 179.54 91.23 166.04 133.31 153.19 93.12 152.66 91.23 158.08 91.23 158.08 88.11 140.93 88.11 140.93 91.23 145.51 91.23 147.91 98.72 136.93 132.95 123.58 91.23 127.79 91.23 129 91.23 130.36 91.23 130.36 88.11 129 88.11 127.79 88.11 111.91 88.11 110.7 88.11 110.37 88.11 110.37 91.23 110.7 91.23 111.91 91.23 116.51 91.23 133.53 144.3 136.78 144.3 149.65 104.15 162.53 144.3 166 144.3 183.02 91.23 189.74 91.23"/><polygon class="cls-1" points="258.44 144.3 260.47 144.3 260.47 141.18 258.44 141.18 251.81 141.18 251.81 97.41 284.92 144.3 286.73 144.3 288.04 144.3 289.85 144.3 289.85 91.23 296.91 91.23 296.91 88.11 279.75 88.11 279.75 91.23 286.73 91.23 286.73 130.13 257.01 88.11 254.71 88.11 254.51 88.11 253.89 88.11 252.42 88.11 251.81 88.11 251.59 88.11 250.12 88.11 249.29 88.11 248.69 88.11 247 88.11 240.55 88.11 240.55 91.23 248.69 91.23 248.69 141.18 242.63 141.18 240.55 141.18 240.55 144.3 242.63 144.3 258.44 144.3"/><path class="cls-1" d="M194.36,141.18h-6.84l5.62-14.05h21.07l5.37,14.05H215v3.12h20v-3.12h-5.49l-20.91-53-.05-.11h-3.48l-3.84,9.66L184,141.18h-6.86v3.12h17.27Zm9.56-41,9.37,24.54H194.1Z"/><polygon class="cls-1" points="411.49 88.11 410.96 88.11 394.2 132.93 378.82 91.23 378.83 91.23 377.71 88.11 377.58 88.11 362.67 88.11 360.25 88.11 360.25 91.23 362.67 91.23 366.46 91.23 368.39 91.23 368.39 141.18 362.67 141.18 360.25 141.18 360.25 144.3 362.67 144.3 377.58 144.3 380.18 144.3 380.18 141.18 377.58 141.18 371.51 141.18 371.51 91.23 371.52 91.23 390.63 144.18 390.58 144.3 390.66 144.3 393.7 144.3 393.78 144.3 393.74 144.18 412.4 92.73 412.4 141.18 408.84 141.18 406.46 141.18 406.46 144.3 408.84 144.3 423.74 144.3 426.38 144.3 426.38 141.18 423.74 141.18 420.03 141.18 420.03 91.23 426.38 91.23 426.38 88.11 414.08 88.11 411.49 88.11"/><path class="cls-1" d="M313.06,127.13h21.07l5.37,14.05h-4.6v3.12h20v-3.12h-5.49l-20.92-53,0-.11H325l-3.84,9.66-17.3,43.41H297v3.12h17.28v-3.12h-6.84Zm10.77-26.95,9.38,24.54H314Z"/><path class="cls-1" d="M487.4,141.18h-3.26l-20.92-53-.05-.11h-3.48l-3.84,9.66-17.29,43.41h-6.87v3.12H449v-3.12h-6.84l5.62-14.05h21.08l5.37,14.05h-4.61v3.12h20.05v-3.12Zm-38.69-16.46,9.81-24.54,9.38,24.54Z"/><path class="cls-1" d="M245.44,191.39c-1.21,3.16-2.39,6.33-3.63,9.47-.43,1.08-1.15,2.06-.49,3.3.29.55.35,1.34-.13,1.64-4.13,2.52-4.65,7.35-7.12,10.94-2,3-3.8,6.2-6.57,8.64-1.72,1.51-3.64,3.09-5.92,1.57s-2.42-4-1.62-6.34a24.34,24.34,0,0,1,13.58-14.91c5.19-2.3,5.42-6.93,7.71-11.81-3.06,1.76-5.57,4.2-7.79,2.26-3.62-3.15-.54-7.1.18-11-2.31,1.06-4.24,2.09-6.27,2.84-1.45.53-1.42,1.59-1.62,2.76a17.25,17.25,0,0,1-5.8,10.55c-2.13,1.79-4.53,3.17-7.37,1.69s-2.62-4.15-2.36-6.8c.06-.64.62-1.28-.06-2.12-2.11,1.12-4.36,2.11-6.38,3.44A14.1,14.1,0,0,1,193.45,200a2.11,2.11,0,0,0-.35-.05c-4.5-.14-4.62-.19-2.57-4.71,3.75-8.28,5.5-17.41,10.61-25.12.9-1.37,1.74-2.77,2.75-4.05.64-.81,1.54-1.67,2.69-.88.94.64.6,1.61.34,2.55-1,3.79-3.41,6.91-5.21,10.31-1.2,2.27-2.45,4.51-3.68,6.76,1.84,1.19,2.7-.53,3.9-1,1.94-.72,3.84-2.26,5.93-.81s1.75,3.68,1.66,5.81c0,.58-.12,1.16-.21,2a18.71,18.71,0,0,0,5.42-4.43c3-3.08,6.08-3.63,9.78-1.39,1.19.72,2,.14,2.87-.25a47,47,0,0,0,9.33-5.55c.7-.51,1.41-1.38,2.47-.57s.6,1.85.13,2.8c-1,2.1-2.15,4.16-3.11,6.29-.8,1.79-1.72,3.61-.93,6.11,3.63-1.88,6.14-4.76,8.57-7.71a45,45,0,0,0,3-4.34c.61-.93,1.21-1.89,2.49-1.25s.69,1.75.23,2.69c-.57,1.2-1.5,2.27-1.53,4.16,5-2.22,8.64-5.66,12.79-8.34a8.5,8.5,0,0,1,5.26-1.59c.89.05,1.7.31,1.8,1.28s-.61,1.26-1.5,1.56c-5.08,1.71-5.31,2-5,7.45.23,3.75.67,7.52-1.26,11-2.26,4.1-7.07,4.46-9.85.8-.67-.88-1.3-1.88-.43-2.8s1.8-.35,2.72.4c2.69,2.16,4.17,1.71,5.37-1.52,1.31-3.54.37-7.18.51-11.22l-11.55,7c-.19-.34-.32-.92-.58-1C245.61,190.24,245.53,190.87,245.44,191.39Zm-52.86,5.36a32.34,32.34,0,0,0,7.48-.94c4.23-1,6.16-4,6.87-7.93.5-2.74-.64-3.66-3.1-2.33C199.16,188.07,195.18,191.39,192.58,196.75Zm20.23,1.67c.06,2,1.63,3,3.78,1.85a11.94,11.94,0,0,0,4.77-5.43c1.9-3.67,1.72-4.16-2.1-4.93-.95-.19-1.84-2-2.9-.44C214.59,192.07,213,194.81,212.81,198.42Zm21.5,10.93c-7.14,3.5-11.64,9.86-10.85,15C228.24,220.35,230.78,215.13,234.31,209.35Zm13.38-21.25.74-.64c-.13-.16-.31-.47-.4-.45a3.8,3.8,0,0,0-.86.42Z"/><path class="cls-1" d="M382.58,196.17a63.33,63.33,0,0,1-5,4.29c-3.36,2.32-6.25,1.44-8-2.28-1.36-2.91-1.09-5.94-.54-9,.27-1.49,1.35-2.79-1.43-3.55-3-.83-2.44,1.43-2.83,2.57-1.05,3.13-2.06,6.26-4.38,8.7-1.31,1.37-2.9,2.6-4.94,2.1s-2.13-2.55-2.45-5c-1.54,1.68-2.73,3.05-4,4.34-.47.47-1.13.93-1.78.15-.49-.61-.07-1,.32-1.49,3.76-4.21,5.69-9.34,7.43-14.59.27-.8.35-2.15,1.69-1.75,1.53.46.82,1.71.56,2.65-1.12,4.19-2.07,8.37-.91,13.1,2.77-1.5,3.69-4,4.63-6.42s1.63-5.12,2.48-7.66c.45-1.33,1.48-2.33,2.41-.71,1.21,2.11,2.83,2.12,4.76,1.87,2.14-.28,2.72.55,2.07,2.63-.83,2.67-1.66,5.38-1.25,8.26.22,1.58.69,3.1,2.29,3.69s2.54-.63,3.59-1.54c3-2.57,4.66-5.41,4.1-9.71a36.17,36.17,0,0,1,2.06-18.65c1.78-4.34,4.64-6.86,7.08-6.25,2.65.66,3.95,4.22,3,9.17a58.91,58.91,0,0,1-7,19,5.2,5.2,0,0,0-.1,5.56c1.17,2.35,2.76,2.72,4.79,1.16a24.05,24.05,0,0,0,5.52-5.37c2.41-3.54,5.78-6.12,8.9-9a5.54,5.54,0,0,1,1.83-1c1.72-.64,4.25-1.74,5,.1.88,2.19-2,1.9-3.35,2.38-2.58.92-3.52,2.35-2.7,5.07.76,2.56,1.57,5.17.59,7.91-.67,1.88-1.65,3.4-3.76,3.75s-3.77-.14-4.77-2.09-2.08-1.89-3.35-.31a1.39,1.39,0,0,1-.27.21C389.11,203.19,386.39,202.69,382.58,196.17Zm7-30.57c-5.2,5.8-5.45,12.63-4.62,19.69C387.71,179,391.15,172.85,389.58,165.6ZM403.4,188c-2,1.29-3,3.24-4.31,4.79-.48.54-1.34,1.2-.12,1.92s1.59,3.09,3.55,3c1.18,0,1.7-1.18,1.91-2.22C405,192.91,404.25,190.5,403.4,188Z"/><path class="cls-1" d="M340.35,198.84c-2.67,1.87-4.87,3.14-7.55,3.33-3.07.22-4.9-1.1-5.53-4.12-1.11-5.28,3.63-14.28,8.56-16.51,2.91-1.32,4.59.73,6.48,2.12a11,11,0,0,1,1.85,2.41c1.21-.57,1.26-3.19,3.11-1.95,1.6,1.06.18,2.46-.23,3.73-1.51,4.66-3.36,9.26-4.33,14-1.94,9.51-6.74,19.5-11.62,25.18a22.25,22.25,0,0,1-2.48,2.47c-2,1.72-4.36,3.26-7,1.74-2.81-1.62-3.1-4.57-2.61-7.47,1.66-9.66,7.94-15.47,16.67-18.69C338.72,204,339.73,202.22,340.35,198.84Zm-2.83,9.52c-7.69,1.63-14.42,8.78-15.14,15.64-.16,1.51-.46,3.38,1,4.15s2.61-.81,3.48-1.79A52.53,52.53,0,0,0,337.52,208.36Zm3.77-18.78c.09-3.74-2.07-5.53-4.86-4.05s-5.81,7.94-5.21,11c.21,1.07.47,2.08,2,1.88C336.28,198,341.22,192.64,341.29,189.58Z"/><path class="cls-1" d="M299.38,196a29.46,29.46,0,0,0,7-9c.54-1,1.24-2.36,2.62-1.6s.56,2,0,3.05c-1.62,3.28-3.51,6.5-6.43,8.67s-2,3.94-.58,6.17c.6.92,2.58,1.84.83,3-1.34.91-2.21-.78-3-1.72a7.47,7.47,0,0,1-1.24-2.11c-.47-1.24-1.07-1.17-2.11-.61a15,15,0,0,1-3.6,1.32,6.92,6.92,0,0,1-7-2.25c-1.9-2.08-1.61-4.52-.58-6.92a12.78,12.78,0,0,1,1.33-2.47c3.42-4.72,6.41-9.47,7-15.63.36-3.78,2.8-7.14,5.62-9.92,1.4-1.38,3.07-2,4.77-.94s1.09,2.7.7,4.17c-1,3.74-3.45,6.68-5.91,9.44-3.18,3.56-3.28,7.21-1.64,11.31C297.92,191.81,298.54,193.7,299.38,196ZM301,168.78c-2,1.58-2.81,3.92-3.86,6.09l-.69,1c.57.28,1,.25,1.32-.41a17.18,17.18,0,0,0,3.95-6.15v-.86Zm-7.8,18.39c-2.21,2.84-4.3,5.23-5.34,8.25-.57,1.64-.41,3.34,1.25,4.35,2.54,1.57,4.67,0,6.83-1.13,1.87-.95.54-2.27.21-3.31C295.29,192.68,294.24,190.09,293.17,187.17Z"/><path class="cls-1" d="M245.44,191.39c.09-.52.17-1.15.87-1,.26.06.39.64.58,1C246.41,191.41,245.92,190.86,245.44,191.39Z"/><path class="cls-1" d="M357.62,178a1.63,1.63,0,0,0,1.61-1.61c0-.87.17-1.56-.73-1.56s-2.53.69-2.49,1.56a1.64,1.64,0,0,0,1.61,1.61Z"/></svg>