<svg id="Capa_1" data-name="Capa 1" xmlns="http://www.w3.org/2000/svg" viewBox="0 0 600 300"><defs><style>.cls-1{fill:#1e1e1e;}</style></defs><title>Mesa de trabajo 5</title><polygon class="cls-1" points="190.76 125.26 190.76 122.17 173.77 122.17 173.77 125.26 180.66 125.26 167.29 166.95 154.56 127.13 154.03 125.26 159.4 125.26 159.4 122.17 142.41 122.17 142.41 125.26 146.94 125.26 149.33 132.68 138.45 166.59 125.23 125.26 129.39 125.26 130.59 125.26 131.94 125.26 131.94 122.17 130.59 122.17 129.39 122.17 113.66 122.17 112.46 122.17 112.14 122.17 112.14 125.26 112.46 125.26 113.66 125.26 118.22 125.26 135.08 177.83 138.29 177.83 151.05 138.06 163.81 177.83 167.25 177.83 184.11 125.26 190.76 125.26"/><polygon class="cls-1" points="258.82 177.83 260.84 177.83 260.84 174.75 258.82 174.75 252.26 174.75 252.26 131.38 285.06 177.83 286.85 177.83 288.15 177.83 289.94 177.83 289.94 125.26 296.94 125.26 296.94 122.17 279.94 122.17 279.94 125.26 286.85 125.26 286.85 163.79 257.41 122.17 255.13 122.17 254.93 122.17 254.32 122.17 252.86 122.17 252.26 122.17 252.04 122.17 250.58 122.17 249.77 122.17 249.17 122.17 247.49 122.17 241.1 122.17 241.1 125.26 249.17 125.26 249.17 174.75 243.16 174.75 241.1 174.75 241.1 177.83 243.16 177.83 258.82 177.83"/><path class="cls-1" d="M195.34,174.75h-6.77l5.57-13.93H215l5.32,13.93h-4.56v3.08h19.86v-3.08h-5.44l-20.72-52.48-.05-.1H206l-3.81,9.57-17.14,43h-6.8v3.08h17.11Zm9.47-40.63,9.29,24.32h-19Z"/><polygon class="cls-1" points="410.45 122.17 409.93 122.17 393.32 166.56 378.09 125.26 378.1 125.26 376.99 122.17 376.85 122.17 362.09 122.17 359.69 122.17 359.69 125.26 362.09 125.26 365.84 125.26 367.75 125.26 367.75 174.75 362.09 174.75 359.69 174.75 359.69 177.83 362.09 177.83 376.85 177.83 379.43 177.83 379.43 174.75 376.85 174.75 370.85 174.75 370.85 125.26 370.85 125.26 389.78 177.72 389.74 177.83 389.82 177.83 392.83 177.83 392.91 177.83 392.87 177.72 411.36 126.75 411.36 174.75 407.82 174.75 405.46 174.75 405.46 177.83 407.82 177.83 422.58 177.83 425.21 177.83 425.21 174.75 422.58 174.75 418.91 174.75 418.91 125.26 425.21 125.26 425.21 122.17 413.02 122.17 410.45 122.17"/><path class="cls-1" d="M312.94,160.82h20.87l5.32,13.93h-4.56v3.08h19.86v-3.08H349l-20.72-52.48,0-.1h-3.44L321,131.74l-17.14,43H297v3.08h17.12v-3.08h-6.78Zm10.67-26.7,9.29,24.32h-19Z"/><path class="cls-1" d="M485.66,174.75h-3.24L461.7,122.27l0-.1h-3.45l-3.81,9.57-17.13,43h-6.81v3.08h17.12v-3.08H440.8l5.57-13.93h20.88l5.32,13.93H468v3.08h19.86v-3.08Zm-38.33-16.31L457,134.12l9.3,24.32Z"/></svg>